<svg width="230" height="9" viewBox="0 0 230 9" fill="none" xmlns="http://www.w3.org/2000/svg">
<path fill-rule="evenodd" clip-rule="evenodd" d="M152.331 0.462086C152.147 0.715916 151.863 0.923595 151.7 0.923595C151.537 0.923595 151.402 1.05351 151.4 1.21204C151.397 1.42664 151.346 1.4211 151.199 1.19081C151.034 0.931671 150.916 0.931671 150.477 1.19081C150.063 1.43495 149.93 1.43956 149.847 1.21204C149.789 1.05351 149.498 0.923595 149.201 0.923595C148.904 0.923595 148.607 1.05351 148.543 1.21204C148.45 1.44279 148.422 1.44279 148.408 1.21204C148.396 1.02767 148.02 0.923595 147.365 0.923595C146.773 0.923595 146.285 0.801987 146.206 0.635152C146.098 0.404397 146.044 0.404397 145.936 0.635152C145.76 1.01036 144.064 1.01036 143.888 0.635152C143.78 0.404397 143.725 0.404397 143.617 0.635152C143.543 0.793911 143.32 0.923595 143.123 0.923595C142.925 0.923595 142.569 1.1472 142.331 1.42041L141.898 1.91722L141.465 1.42041C140.989 0.874675 140.149 0.757913 139.965 1.21204C139.871 1.44279 139.844 1.44279 139.829 1.21204C139.798 0.720531 138.403 0.872367 137.927 1.41926L137.495 1.91492L137.349 1.1885C137.219 0.542388 136.797 0.142952 136.797 0.665842C136.797 0.777989 136.588 0.924056 136.333 0.990514C136.078 1.05674 135.87 1.27665 135.87 1.47879C135.87 1.68116 135.765 1.84661 135.638 1.84661C135.51 1.84661 135.406 1.53509 135.406 1.15435C135.406 0.615999 135.303 0.462086 134.942 0.462086C134.687 0.462086 134.479 0.565925 134.479 0.69284C134.479 0.819755 134.27 0.923595 134.015 0.923595C133.76 0.923595 133.551 0.819755 133.551 0.69284C133.551 0.565925 133.29 0.462086 132.972 0.462086C132.653 0.462086 132.392 0.565925 132.392 0.69284C132.392 0.819755 132.236 0.923595 132.044 0.923595C131.853 0.923595 131.696 0.819755 131.696 0.69284C131.696 0.277482 131.309 0.450779 131.052 0.981283C130.914 1.26696 130.793 1.3708 130.785 1.21204C130.776 1.05351 130.613 0.923595 130.421 0.923595C130.23 0.923595 130.074 0.819755 130.074 0.69284C130.074 0.565925 129.877 0.462086 129.637 0.462086C129.132 0.462086 128.849 1.22819 129.219 1.59647C129.4 1.77623 129.392 1.84661 129.193 1.84661C129.04 1.84661 128.914 1.74277 128.914 1.61586C128.914 1.48894 128.653 1.3851 128.335 1.3851C127.585 1.3851 127.545 2.1369 128.277 2.48811L128.798 2.73848L128.296 2.75394C128.02 2.76271 127.753 2.88985 127.704 3.03684C127.648 3.20553 127.384 3.24637 126.989 3.14784C126.481 3.02092 126.364 2.85986 126.364 2.28735C126.364 1.89992 126.215 1.43448 126.033 1.25334C125.557 0.780296 124.667 0.847215 124.277 1.3851C123.838 1.99176 123.118 1.99176 123.118 1.3851C123.118 1.07751 122.963 0.923595 122.654 0.923595C122.399 0.923595 122.191 1.02743 122.191 1.15435C122.191 1.28126 122.034 1.3851 121.843 1.3851C121.652 1.3851 121.495 1.28126 121.495 1.15435C121.495 1.02374 120.828 0.923595 119.957 0.923595C118.68 0.923595 118.348 1.0062 117.994 1.41233C117.532 1.94168 116.858 1.86138 116.858 1.27688C116.858 0.858984 116.012 0.79691 115.875 1.20488C115.803 1.4211 115.549 1.40956 114.772 1.15435C113.994 0.899135 113.74 0.887597 113.668 1.10381C113.553 1.4481 110.83 1.49633 110.83 1.15435C110.83 0.672072 110.234 0.954977 109.856 1.61724C109.567 2.12144 109.289 2.30812 108.824 2.30812C108.329 2.30812 108.249 2.24651 108.465 2.03122C108.932 1.56694 108.782 1.3851 107.932 1.3851C107.486 1.3851 107.121 1.28126 107.121 1.15435C107.121 0.806141 104.175 0.86083 104.01 1.21204C103.902 1.44279 103.848 1.44279 103.74 1.21204C103.579 0.869137 102.947 0.823217 102.947 1.15435C102.947 1.28126 102.791 1.3851 102.6 1.3851C102.408 1.3851 102.252 1.28126 102.252 1.15435C102.252 1.02743 101.945 0.923595 101.57 0.923595C101.195 0.923595 100.824 1.02743 100.745 1.15435C100.558 1.45548 98.5422 1.45548 98.5422 1.15435C98.5422 1.02743 98.2814 0.923595 97.9626 0.923595C97.6438 0.923595 97.383 1.04013 97.383 1.1825C97.383 1.35603 97.2622 1.34172 97.0176 1.13981C96.7148 0.889674 96.6153 0.89475 96.438 1.16912C96.253 1.45525 96.1897 1.45341 95.9743 1.15435C95.7865 0.893827 95.6956 0.879521 95.6073 1.09666C95.4547 1.47071 94.6704 1.47071 94.5354 1.09666C94.4649 0.900981 94.282 0.975284 93.9672 1.32741C93.4789 1.87361 92.8715 2.00468 92.6301 1.61586C92.4356 1.30272 90.9578 1.32211 90.76 1.64055C90.6464 1.82354 90.5527 1.81754 90.4296 1.61932C90.2968 1.40541 90.1526 1.40818 89.7932 1.63132C89.3986 1.87661 89.2498 1.8473 88.8072 1.43702C88.3787 1.0399 88.2083 1.00205 87.8499 1.22496C87.6099 1.37403 87.4135 1.67885 87.4135 1.90222C87.4135 2.50357 86.2494 2.45465 86.0897 1.84661C85.9659 1.37518 85.5587 1.19842 85.5587 1.61586C85.5587 1.74277 85.1414 1.84661 84.6313 1.84661C84.1213 1.84661 83.704 1.74277 83.704 1.61586C83.704 1.18019 82.8028 1.3851 82.4355 1.9043C82.1473 2.31158 82.0258 2.35612 81.8724 2.11175C81.6528 1.76169 79.3934 1.79515 78.8931 2.15582C78.7088 2.28874 78.6033 2.27051 78.6033 2.10552C78.6033 1.96314 78.4468 1.84661 78.2555 1.84661C78.0643 1.84661 77.9078 1.95045 77.9078 2.07737C77.9078 2.20428 77.8034 2.30812 77.6759 2.30812C77.5484 2.30812 77.4441 2.15144 77.4441 1.96014C77.4441 1.66962 77.3671 1.6597 76.9804 1.90015C76.7253 2.05868 76.5097 2.34504 76.5009 2.5368C76.4912 2.75417 76.3901 2.6884 76.232 2.36189C76.0565 1.99937 75.848 1.8803 75.5522 1.97376C75.2619 2.06537 75.1256 1.99291 75.1256 1.7467C75.1256 1.54779 75.0213 1.3851 74.8937 1.3851C74.7662 1.3851 74.6619 1.59278 74.6619 1.84661C74.6619 2.35773 74.3048 2.47103 74.1166 2.01968C74.0331 1.81984 73.8555 1.89069 73.5384 2.25043C73.0049 2.85547 72.8071 2.90347 72.8071 2.42788C72.8071 1.86438 70.9658 1.65624 70.3147 2.14636C70.1249 2.28943 70.0249 2.27535 70.0249 2.10552C70.0249 1.77831 69.1759 1.76469 68.9747 2.08867C68.8801 2.24097 68.7247 2.25066 68.5553 2.11498C68.1845 1.81823 66.0835 1.80646 66.0835 2.10137C66.0835 2.23428 65.8788 2.27466 65.6198 2.19274C65.2822 2.08614 65.1561 2.15121 65.1561 2.43273C65.1561 2.71033 65.0418 2.77217 64.7504 2.65241C64.107 2.38819 62.8376 2.32566 62.8376 2.55803C62.8376 2.67433 62.7333 2.76963 62.6058 2.76963C62.4783 2.76963 62.3739 2.56195 62.3739 2.30812C62.3739 1.83046 61.8145 1.67124 61.5625 2.07737C61.4837 2.20428 61.1185 2.30812 60.751 2.30812C60.3835 2.30812 60.0151 2.41704 59.9326 2.55018C59.8294 2.7161 59.6817 2.70894 59.4617 2.52711C59.0875 2.21813 58.5549 2.62633 58.372 3.3629C58.2872 3.70442 58.2206 3.63357 58.0862 3.05807C57.9651 2.54072 57.7762 2.30812 57.4762 2.30812C57.2371 2.30812 57.0414 2.41888 57.0414 2.55434C57.0414 2.69417 56.8159 2.74494 56.5198 2.67202C56.233 2.60118 56.1287 2.6028 56.2879 2.67571C56.7387 2.88155 56.6292 3.23114 56.1141 3.23114C55.8407 3.23114 55.6504 3.07723 55.6504 2.85616C55.6504 2.56449 55.4992 2.51119 54.971 2.61641C54.541 2.70202 54.2539 2.64918 54.1886 2.47219C54.1086 2.25551 54.0163 2.25759 53.7782 2.48119C53.4063 2.83032 51.6201 2.86216 50.9981 2.5308C50.5676 2.30143 50.4271 2.45742 50.5223 3.05807C50.5687 3.35067 50.1426 3.24937 50.0232 2.9397C49.9448 2.73617 49.4331 2.6651 48.3286 2.70456C47.2932 2.74148 46.6869 2.66556 46.5744 2.48442C46.4532 2.2892 46.2526 2.3755 45.8947 2.77701C45.5569 3.15545 45.3517 3.24983 45.2826 3.05807C45.2114 2.86078 44.6054 2.76963 43.3624 2.76963C42.1362 2.76963 41.5023 2.67594 41.411 2.48119C41.3029 2.25043 41.2487 2.25043 41.1406 2.48119C41.0662 2.63972 40.8452 2.76963 40.6498 2.76963C40.4084 2.76963 40.3333 2.91777 40.4156 3.23114C40.4822 3.48497 40.4423 3.69265 40.3266 3.69265C40.2111 3.69265 40.1165 3.50228 40.1165 3.26968C40.1165 2.60418 39.8856 2.53795 39.3665 3.05461C38.8996 3.51935 38.8782 3.52051 38.5685 3.09892C38.3019 2.73594 38.1764 2.71171 37.7955 2.94847C37.5454 3.10399 37.1916 3.23114 37.0091 3.23114C36.8266 3.23114 36.6245 3.36105 36.5598 3.51958C36.467 3.74711 36.3975 3.74457 36.2296 3.50781C36.0581 3.26529 35.8953 3.26275 35.3834 3.49489C34.89 3.71872 34.6517 3.72126 34.3062 3.50666C34.0625 3.35505 33.6737 3.23114 33.4426 3.23114C33.2112 3.23114 32.8968 3.10653 32.7438 2.95423C32.5275 2.73894 32.4656 2.73894 32.4656 2.95423C32.4656 3.10653 32.3091 3.23114 32.1178 3.23114C31.9265 3.23114 31.7633 3.36105 31.7554 3.51958C31.7473 3.67834 31.6376 3.55097 31.5115 3.23668C31.3801 2.90854 31.2136 2.76686 31.1206 2.90347C30.9222 3.19514 28.9987 3.1926 28.5378 2.90001C28.319 2.76109 28.1724 2.7814 28.1129 2.95954C28.0025 3.28883 26.6694 3.32644 26.6694 3.00038C26.6694 2.87347 26.4607 2.76963 26.2057 2.76963C25.8966 2.76963 25.742 2.92354 25.742 3.23114C25.742 3.55696 25.5885 3.69149 25.2203 3.68919C24.796 3.68619 24.7636 3.64304 25.0464 3.45705C25.292 3.29575 24.9708 3.24314 23.9549 3.27798C23.1634 3.30521 22.4414 3.25375 22.3507 3.16353C22.2601 3.0733 22.0037 3.16353 21.7806 3.36452C21.485 3.63057 21.2604 3.66819 20.9501 3.50297C20.3024 3.15776 18.9581 3.10769 18.4388 3.40928C18.1837 3.55743 18.1056 3.6818 18.2649 3.68573C18.4244 3.68942 18.5512 3.82256 18.547 3.98109C18.5392 4.27369 17.7611 3.46305 17.5473 2.9397C17.4578 2.72071 17.3792 2.72763 17.209 2.969C17.0356 3.21545 16.0229 3.28721 12.5545 3.29921C8.42827 3.31329 8.12154 3.34352 8.12154 3.73441C8.12154 4.00024 7.95159 4.15416 7.65784 4.15416C7.40281 4.15416 7.19414 4.05032 7.19414 3.9234C7.19414 3.79649 7.08981 3.69265 6.9623 3.69265C6.83478 3.69265 6.73045 3.84841 6.73045 4.03878C6.73045 4.22915 6.64211 4.38491 6.53407 4.38491C6.16845 4.38491 5.33936 3.52535 5.33936 3.14645C5.33936 2.93923 5.23503 2.76963 5.10751 2.76963C4.98 2.76963 4.87566 2.60649 4.87566 2.40711C4.87566 1.90153 4.13329 1.17904 4.00554 1.56025C3.95268 1.71785 3.7097 1.84661 3.46533 1.84661C3.22097 1.84661 3.02088 1.95045 3.02088 2.07737C3.02088 2.20428 2.59382 2.30812 2.0717 2.30812C1.30474 2.30812 1.0984 2.40042 0.996385 2.78924C0.902718 3.14507 0.821339 3.19168 0.682926 2.96877C0.318461 2.38219 0.137156 3.05092 0.0455762 5.31947C-0.0466993 7.60855 -0.0453082 7.61547 0.503708 7.61547C0.806733 7.61547 1.18488 7.82315 1.34416 8.07698C1.65182 8.56734 2.64761 8.69333 3.24485 8.31743C3.4651 8.17875 3.70298 8.20044 3.92022 8.37858C4.18105 8.59272 4.27726 8.58972 4.35308 8.36543C4.46854 8.02391 5.33936 7.97291 5.33936 8.30774C5.33936 8.43465 5.91318 8.53849 6.61452 8.53849C7.31586 8.53849 7.88969 8.64233 7.88969 8.76925C7.88969 8.89616 8.30701 9 8.81708 9C9.32714 9 9.74447 8.89616 9.74447 8.76925C9.74447 8.64233 9.95313 8.53849 10.2082 8.53849C10.5172 8.53849 10.6719 8.38458 10.6719 8.07698C10.6719 7.75 10.824 7.61755 11.1935 7.62286C11.6894 7.62978 11.6941 7.64616 11.2883 7.95191C10.9693 8.19259 10.9185 8.37512 11.0869 8.67464C11.2923 9.03969 11.3264 9.03092 11.4713 8.5761C11.6292 8.08137 12.2948 7.86446 12.2948 8.30774C12.2948 8.65687 15.2444 8.60172 15.3879 8.25005C15.4764 8.03222 15.5708 8.04629 15.7725 8.30774C15.9742 8.56918 16.0686 8.58326 16.1572 8.36543C16.2967 8.02368 17.1636 7.97383 17.1636 8.30774C17.1636 8.63402 18.8684 8.59549 19.2039 8.26159C19.4202 8.04629 19.4821 8.04629 19.4821 8.26159C19.4821 8.41388 19.646 8.53849 19.8463 8.53849C20.2518 8.53849 20.6522 8.19444 21.0549 7.5001C21.3158 7.05082 21.323 7.05243 21.3299 7.55779C21.3352 7.95584 21.472 8.07698 21.9165 8.07698C22.2353 8.07698 22.4961 8.18082 22.4961 8.30774C22.4961 8.43465 22.9134 8.53849 23.4235 8.53849C23.9336 8.53849 24.3509 8.43719 24.3509 8.31351C24.3509 8.18982 24.6901 8.13882 25.1044 8.20044C25.5189 8.26182 25.7276 8.25074 25.5681 8.17528C25.2243 8.01306 25.1756 7.15396 25.5101 7.15396C25.6376 7.15396 25.742 7.2578 25.742 7.38472C25.742 7.51163 25.9421 7.61547 26.1864 7.61547C26.4308 7.61547 26.6916 7.74516 26.7661 7.90392C26.8741 8.13467 26.9283 8.13467 27.0364 7.90392C27.1108 7.74516 27.3716 7.61547 27.616 7.61547C27.8606 7.61547 28.0605 7.51163 28.0605 7.38472C28.0605 7.2578 28.1648 7.15396 28.2923 7.15396C28.4198 7.15396 28.5242 7.30972 28.5242 7.5001C28.5242 7.69047 28.4198 7.84623 28.2923 7.84623C28.1648 7.84623 28.0605 8.00199 28.0605 8.19236C28.0605 8.38273 28.217 8.53849 28.4082 8.53849C28.5995 8.53849 28.7576 8.40881 28.7595 8.25005C28.762 8.0546 28.8327 8.07121 28.9788 8.30105C29.2137 8.67048 29.2568 8.64856 29.6421 7.96161C29.7847 7.70778 29.9043 7.63001 29.9083 7.78854C29.9166 8.1379 32.0019 8.19536 32.0019 7.84623C32.0019 7.71931 32.2105 7.61547 32.4656 7.61547C32.7206 7.61547 32.9293 7.71931 32.9293 7.84623C32.9293 7.97314 33.3726 8.06868 33.9146 8.05875C34.4567 8.04883 34.7697 7.98814 34.6102 7.92422C34.2673 7.78646 34.2158 6.69246 34.5522 6.69246C34.6797 6.69246 34.784 6.90014 34.784 7.15396C34.784 7.40779 34.8884 7.61547 35.0159 7.61547C35.1434 7.61547 35.2477 7.82315 35.2477 8.07698C35.2477 8.33081 35.3521 8.53849 35.4796 8.53849C35.6071 8.53849 35.7114 8.43465 35.7114 8.30774C35.7114 8.18082 36.2767 8.07698 36.9674 8.07698C37.7549 8.07698 38.2666 7.96945 38.3401 7.78854C38.4336 7.55779 38.4607 7.55779 38.4753 7.78854C38.4985 8.15405 39.4458 8.16098 40.2383 7.80169C40.7075 7.58894 40.884 7.58871 41.0159 7.801C41.263 8.19905 42.4309 7.61847 42.4332 7.09628C42.4341 6.87429 42.3307 6.69246 42.2032 6.69246C42.0757 6.69246 41.9713 6.58862 41.9713 6.4617C41.9713 6.33479 42.187 6.23095 42.4506 6.23095C42.8143 6.23095 42.8966 6.33571 42.7916 6.66523C42.7042 6.93913 42.784 7.14935 43.0077 7.23473C43.2029 7.30926 43.3624 7.52917 43.3624 7.7237C43.3624 7.91799 43.4667 8.07698 43.5943 8.07698C43.7218 8.07698 43.8261 7.98906 43.8261 7.88153C43.8261 7.774 44.061 7.57325 44.3478 7.43549C44.776 7.23011 44.795 7.18235 44.454 7.16966C44.2256 7.16089 43.8145 6.94629 43.5409 6.69246C43.1187 6.3011 43.1025 6.23095 43.4345 6.23095C43.6499 6.23095 43.8261 6.33479 43.8261 6.4617C43.8261 6.58862 44.1391 6.69246 44.5217 6.69246C45.0626 6.69246 45.2172 6.79491 45.2172 7.15396C45.2172 7.40779 45.3215 7.61547 45.4491 7.61547C45.5766 7.61547 45.6809 7.51163 45.6809 7.38472C45.6809 7.2578 45.7852 7.15396 45.9127 7.15396C46.0403 7.15396 46.1446 7.36164 46.1446 7.61547C46.1446 7.92307 46.2992 8.07698 46.6083 8.07698C46.8633 8.07698 47.072 7.97314 47.072 7.84623C47.072 7.71931 46.9677 7.61547 46.8401 7.61547C46.7126 7.61547 46.6083 7.51163 46.6083 7.38472C46.6083 7.25619 47.1476 7.16781 47.8255 7.18535C48.4948 7.20265 48.8078 7.26173 48.521 7.31688C47.8004 7.45487 47.8478 8.07698 48.579 8.07698C48.8978 8.07698 49.1586 7.97314 49.1586 7.84623C49.1586 7.71931 49.4194 7.61547 49.7382 7.61547C50.057 7.61547 50.3179 7.71931 50.3179 7.84623C50.3179 7.97314 50.4744 8.07698 50.6656 8.07698C50.8569 8.07698 51.0134 7.97314 51.0134 7.84623C51.0134 7.71631 51.664 7.61547 52.5014 7.61547C54.1969 7.61547 54.723 7.4731 54.723 7.0139C54.723 6.83714 54.7826 6.69246 54.8554 6.69246C55.1275 6.69246 55.6504 7.36464 55.6504 7.71447C55.6504 7.91384 55.7547 8.07698 55.8822 8.07698C56.0097 8.07698 56.1141 7.97314 56.1141 7.84623C56.1141 7.71931 56.7018 7.61547 57.4201 7.61547C58.8318 7.61547 59.5572 7.12927 59.6247 6.13795C59.6428 5.87189 59.7209 6.06942 59.7986 6.57708L59.9395 7.5001L61.75 7.53817C63.2911 7.57048 63.6255 7.65078 63.9967 8.07652C64.3414 8.47227 64.5204 8.52626 64.8524 8.33404C65.0831 8.20044 65.1417 8.08783 64.9822 8.0839C64.5545 8.07375 64.6303 7.69047 65.0982 7.4971C65.3212 7.40479 66.0759 7.28273 66.7749 7.2255C67.4741 7.16827 68.1954 6.9989 68.3776 6.84914C68.6338 6.63892 68.7315 6.64261 68.8068 6.86552C68.8604 7.02428 69.1043 7.15396 69.3486 7.15396C69.5932 7.15396 69.7931 7.25688 69.7931 7.38287C69.7931 7.762 71.2342 7.48279 71.5591 7.04043C71.8213 6.68392 71.9532 6.66684 72.5491 6.91236C72.9272 7.06836 73.453 7.12743 73.7173 7.04389C73.9988 6.95505 74.1982 6.99428 74.1982 7.1385C74.1982 7.27396 74.3025 7.38472 74.43 7.38472C74.8263 7.38472 74.6853 6.88214 74.1627 6.43101C73.8882 6.19403 73.4635 6.00019 73.2189 6.00019C72.811 6.00019 72.8048 5.9695 73.1451 5.63075C73.5887 5.18932 74.6619 5.37231 74.6619 5.8892C74.6619 6.07726 74.7662 6.23095 74.8937 6.23095C75.0213 6.23095 75.1256 6.4257 75.1256 6.66361C75.1256 7.51002 77.8813 7.50356 78.6304 6.65554C78.8368 6.42201 79.1966 6.23095 79.4303 6.23095C79.7609 6.23095 79.7934 6.29256 79.5771 6.50785C79.424 6.66015 79.2988 6.86783 79.2988 6.96936C79.2988 7.2675 79.9448 7.18073 80.0728 6.86552C80.1662 6.63477 80.1933 6.63477 80.2079 6.86552C80.2295 7.20542 80.9218 7.2615 80.9218 6.92321C80.9218 6.60039 82.3931 6.63384 82.7251 6.96428C82.9347 7.17289 83.1002 7.11935 83.4362 6.73353C83.9801 6.10957 84.1677 6.09896 84.1677 6.69246C84.1677 6.94629 84.272 7.15396 84.3995 7.15396C84.527 7.15396 84.6313 6.99082 84.6313 6.79145C84.6313 6.44163 85.1542 5.76944 85.4264 5.76944C85.4992 5.76944 85.5587 5.9252 85.5587 6.11557C85.5587 6.30594 85.4544 6.4617 85.3269 6.4617C85.1994 6.4617 85.095 6.57662 85.095 6.71715C85.095 6.86091 85.2643 6.90798 85.4822 6.82468C85.6953 6.74345 85.9427 6.79491 86.0324 6.93913C86.1523 7.13227 86.3218 7.13435 86.6732 6.94698C86.9361 6.80691 87.4624 6.69246 87.8427 6.69246C88.2229 6.69246 88.5867 6.56277 88.6511 6.40401C88.7446 6.17326 88.7717 6.17326 88.7863 6.40401C88.7995 6.61331 89.4095 6.69246 91.0072 6.69246C92.321 6.69246 93.2097 6.78568 93.2097 6.92321C93.2097 7.05013 93.4184 7.15396 93.6734 7.15396C93.9285 7.15396 94.1371 7.0432 94.1371 6.90775C94.1371 6.7663 94.3349 6.72384 94.6008 6.80783C94.9298 6.91167 95.0645 6.84937 95.0645 6.59254C95.0645 6.39363 95.1688 6.23095 95.2964 6.23095C95.63 6.23095 95.5825 5.59891 95.2384 5.46069C95.0791 5.39677 95.1832 5.33608 95.4702 5.32616C95.7874 5.31508 95.9919 5.44361 95.9919 5.65406C95.9919 5.84443 96.0962 6.00019 96.2237 6.00019C96.3513 6.00019 96.4556 5.84443 96.4556 5.65406C96.4556 5.21055 96.6286 5.21632 97.0895 5.67506C97.3981 5.98219 97.4059 6.07427 97.1372 6.23949C96.6956 6.51131 97.3396 6.75384 98.2329 6.65207C98.7544 6.59254 98.9051 6.44624 98.9633 5.9425C99.0497 5.19555 99.4641 5.12148 99.9333 5.76944C100.306 6.28425 100.859 6.38694 100.864 5.9425C100.867 5.73921 100.929 5.75052 101.076 5.98058C101.28 6.30271 102.734 6.38971 103.192 6.10749C103.314 6.0325 103.477 6.13265 103.553 6.3304C103.777 6.91121 104.107 6.50024 104.107 5.64045C104.107 5.20363 104.211 4.84642 104.338 4.84642C104.466 4.84642 104.57 5.0541 104.57 5.30793C104.57 5.56176 104.675 5.76944 104.802 5.76944C104.93 5.76944 105.034 5.93212 105.034 6.13103C105.034 6.37332 105.171 6.4497 105.448 6.36202C106.242 6.11119 108.604 6.16103 108.694 6.43032C108.86 6.92506 109.174 6.69153 109.583 5.76944C110.018 4.78873 110.557 4.58682 111.077 5.21009C111.324 5.50707 111.325 5.60768 111.08 5.75813C110.541 6.08996 111.143 6.18895 113.79 6.20326C116.144 6.21595 116.427 6.1728 116.685 5.76252C117.051 5.17917 117.322 5.18194 117.322 5.76944C117.322 6.30271 117.574 6.32694 118.754 5.90766C119.223 5.74106 120.051 5.64875 120.594 5.70275C121.138 5.75698 121.825 5.6716 122.123 5.51307C122.538 5.29178 122.727 5.28808 122.937 5.49715C123.325 5.88297 124.046 5.83497 124.046 5.42331C124.046 5.23293 123.941 5.07718 123.814 5.07718C123.686 5.07718 123.582 4.92142 123.582 4.73104C123.582 4.47514 123.839 4.38907 124.567 4.4006C125.446 4.41445 125.496 4.44306 125.031 4.66643C124.704 4.82334 124.509 5.12448 124.509 5.472C124.509 6.02419 124.519 6.0265 126.489 5.90651C127.577 5.84028 128.568 5.72421 128.691 5.64875C129.075 5.41246 128.936 5.1134 128.393 5.00933C127.88 4.9108 127.88 4.90872 128.423 4.8778C128.727 4.8605 129.166 5.06425 129.398 5.33077C129.63 5.59706 129.955 5.76967 130.121 5.71429C130.286 5.65891 130.537 5.77036 130.679 5.96212C130.898 6.25725 130.986 6.21018 131.259 5.65314C131.683 4.78666 132.102 4.67243 132.102 5.42331C132.102 5.75121 132.154 6.0708 132.217 6.1338C132.389 6.30502 133.551 5.72975 133.551 5.47338C133.551 5.35131 133.7 5.37416 133.881 5.52415C134.361 5.92035 137.261 5.99073 137.261 5.60606C137.261 5.44223 137.365 5.30793 137.493 5.30793C137.62 5.30793 137.725 5.47015 137.725 5.6686C137.725 5.8772 137.895 6.00804 138.13 5.97919C138.353 5.95173 138.714 6.00642 138.931 6.10057C139.148 6.19472 139.461 6.18733 139.626 6.08419C139.792 5.98081 140.11 5.92612 140.333 5.96281C140.808 6.04057 140.914 5.17432 140.449 5.01879C140.222 4.94311 140.231 4.78735 140.488 4.30738C140.877 3.58073 141.428 3.50458 141.599 4.15416C141.665 4.40799 141.812 4.61567 141.925 4.61567C142.037 4.61567 142.13 4.77789 142.13 4.97634C142.13 5.19924 141.966 5.30931 141.701 5.26478C141.164 5.17409 141.036 5.62499 141.568 5.73436C141.783 5.77867 142.046 5.67483 142.153 5.50361C142.316 5.24332 142.432 5.2447 142.866 5.51238C143.248 5.74867 143.408 5.76113 143.475 5.56061C143.532 5.38892 143.664 5.36654 143.833 5.49992C143.98 5.61622 144.585 5.78098 145.177 5.86612C146.158 6.00735 146.296 5.9665 146.742 5.40254C147.01 5.06241 147.23 4.87919 147.23 4.99549C147.23 5.367 148.521 5.72813 148.966 5.48076C149.233 5.33193 149.796 5.34 150.62 5.50476C151.844 5.74936 152.563 5.67437 152.563 5.30239C152.563 5.19971 152.433 5.06333 152.273 4.99918C152.111 4.93411 152.175 4.8748 152.42 4.86465C152.66 4.85473 153.057 5.07671 153.302 5.35823C153.681 5.79274 153.784 5.81882 153.984 5.5313C154.164 5.2747 154.249 5.26247 154.339 5.481C154.527 5.9432 155.663 5.8239 155.987 5.30793C156.323 4.77166 156.736 4.69897 156.736 5.17617C156.736 5.57814 158.917 5.64252 160.295 5.28116C161.016 5.09194 161.264 5.1164 161.588 5.40831C161.809 5.60699 162.111 5.76944 162.261 5.76944C162.72 5.76944 162.561 5.13832 162.069 5.01026C161.814 4.94403 161.605 4.72735 161.605 4.52913C161.605 4.2813 161.732 4.21646 162.011 4.32145C162.553 4.5259 162.88 4.89003 162.88 5.28878C162.88 5.46853 163.011 5.65891 163.17 5.71175C163.329 5.76459 163.46 5.71798 163.46 5.60814C163.46 5.4983 163.948 5.38708 164.545 5.36123C165.142 5.33539 165.707 5.19209 165.799 5.04302C165.922 4.8455 166.073 4.87619 166.353 5.15517C166.565 5.36608 166.824 5.53868 166.929 5.53868C167.256 5.53868 167.378 4.91565 167.105 4.64382C166.913 4.45252 166.925 4.38491 167.154 4.38491C167.324 4.38491 167.631 4.5739 167.838 4.80465C168.247 5.26362 169.024 5.62452 169.024 5.35616C169.024 5.26385 169.219 5.06702 169.457 4.91911C169.792 4.71074 170.026 4.7202 170.493 4.96157C171.512 5.48769 172.191 5.4683 172.687 4.89972C173.15 4.36853 173.893 4.39645 173.893 4.94495C173.893 5.31393 177.867 5.43046 178.523 5.08064C178.84 4.91195 178.993 4.90826 178.993 5.0691C178.993 5.44638 179.92 5.34693 180.072 4.95349C180.195 4.63528 180.264 4.63505 180.75 4.95188C181.242 5.27332 181.311 5.26893 181.518 4.90249C181.733 4.52036 181.752 4.52036 181.901 4.90411C182.02 5.21124 182.324 5.30793 183.172 5.30793C183.838 5.30793 184.342 5.19163 184.423 5.01949C184.531 4.78873 184.585 4.78873 184.693 5.01949C184.886 5.43138 185.497 5.37346 186.264 4.87019C186.881 4.46521 186.897 4.4186 186.495 4.18646C186.095 3.95478 186.101 3.93702 186.586 3.93033C186.918 3.92594 187.108 4.06116 187.108 4.30184C187.108 4.50998 187.284 4.80788 187.498 4.96387C187.818 5.19648 187.972 5.16971 188.354 4.81596C188.61 4.57851 188.878 4.47514 188.949 4.58636C189.155 4.90734 190.437 5.09748 190.805 4.86188C191.024 4.72227 191.418 4.76266 191.935 4.97772C192.843 5.35523 194.759 5.42261 194.759 5.07718C194.759 4.95026 194.863 4.84642 194.991 4.84642C195.118 4.84642 195.223 5.00218 195.223 5.19255C195.223 5.62314 195.47 5.63191 196.035 5.2207C196.406 4.95049 196.52 4.95049 196.792 5.22093C196.979 5.40785 197.334 5.4833 197.652 5.40392C197.95 5.32962 198.41 5.38362 198.674 5.52438C199.031 5.71475 199.269 5.70829 199.605 5.49923C199.96 5.27885 200.19 5.27862 200.675 5.4983C201.224 5.74752 201.305 5.72721 201.414 5.31231C201.53 4.87296 201.944 4.64566 201.948 5.01949C201.951 5.27378 203.117 5.76944 203.712 5.76944C203.995 5.76944 204.279 5.63975 204.344 5.481C204.435 5.25647 204.51 5.26178 204.682 5.50476C204.833 5.72006 205.037 5.75259 205.337 5.60953C205.854 5.36308 207.174 5.37554 207.945 5.63422C208.324 5.76113 208.558 5.72075 208.695 5.50569C208.805 5.33354 208.896 5.30401 208.898 5.43992C208.903 5.78282 212.182 5.85643 212.392 5.51838C212.509 5.32962 212.693 5.33493 213.073 5.53776C213.36 5.69029 214.39 5.85297 215.363 5.89889C216.336 5.94481 217.796 6.04819 218.606 6.12849C220.151 6.28148 220.977 5.98381 220.261 5.53268C220.011 5.37577 220.174 5.31808 220.842 5.32616C221.648 5.33562 221.699 5.36516 221.233 5.55138C220.595 5.8059 220.755 6.24064 221.422 6.06688C221.677 6.00065 221.885 6.03642 221.885 6.14626C221.885 6.25633 222.433 6.34817 223.103 6.35071C223.772 6.35302 224.502 6.44209 224.725 6.54847C225.067 6.71092 225.131 6.62761 225.131 6.02488C225.131 5.18955 225.275 5.13579 225.824 5.76598C226.121 6.1068 226.483 6.21479 227.242 6.1878C227.803 6.16818 228.6 6.22979 229.015 6.3251C229.616 6.46332 229.799 6.41855 229.921 6.10334C230.005 5.8862 229.952 5.51584 229.805 5.28047C229.475 4.75527 229.453 3.9234 229.768 3.9234C229.896 3.9234 230 3.55996 230 3.11576C230 2.55918 229.894 2.30812 229.659 2.30812C229.472 2.30812 228.965 2.11083 228.534 1.86969C228.025 1.58494 227.636 1.50279 227.426 1.63547C227.166 1.79908 227.183 1.84015 227.508 1.84315C227.731 1.845 227.913 1.95045 227.913 2.07737C227.913 2.20428 227.653 2.30812 227.334 2.30812C227.015 2.30812 226.754 2.2202 226.754 2.11267C226.754 2.00514 226.559 1.69362 226.321 1.42041C225.897 0.933286 224.781 0.734145 224.629 1.11858C224.478 1.49933 222.834 1.60386 222.483 1.25496C222.102 0.875367 221.055 0.811217 220.842 1.15435C220.627 1.50071 217.545 1.44902 217.401 1.09666C217.313 0.879521 217.223 0.893827 217.038 1.15435C216.871 1.38903 216.791 1.40749 216.788 1.21204C216.786 1.05351 216.628 0.923595 216.437 0.923595C216.246 0.923595 216.089 0.807064 216.089 0.664688C216.089 0.496237 215.954 0.516313 215.704 0.722377C215.403 0.969284 215.297 0.975514 215.221 0.750529C215.066 0.293635 214.698 0.415473 214.698 0.923595C214.698 1.33272 214.543 1.3851 213.334 1.3851C212.165 1.3851 211.953 1.31911 211.849 0.923595C211.732 0.478239 210.988 0.253484 210.988 0.663534C210.988 0.774297 210.519 0.874444 209.945 0.885982C209.371 0.897289 208.902 0.806602 208.902 0.684533C208.902 0.562233 208.493 0.462086 207.994 0.462086C207.485 0.462086 207.034 0.335402 206.968 0.173643C206.88 -0.0434972 206.789 -0.0291904 206.601 0.231331C206.379 0.538927 206.324 0.538927 206.102 0.231331C205.914 -0.0291904 205.823 -0.0434972 205.735 0.173643C205.581 0.551157 203.872 0.551157 203.736 0.173643C203.679 0.0148837 203.551 -0.0393436 203.452 0.0527274C203.353 0.144798 203.403 0.378553 203.565 0.571925C203.765 0.812371 203.776 0.923595 203.598 0.923595C203.455 0.923595 203.337 0.819755 203.337 0.69284C203.337 0.343709 201.252 0.401167 201.243 0.750529C201.239 0.909288 201.04 0.805448 200.8 0.519774C200.258 -0.127723 199.706 -0.146875 199.508 0.474777L199.357 0.948978L198.944 0.474777C198.507 -0.0261907 198.005 -0.156336 198.005 0.231331C198.005 0.358246 197.848 0.462086 197.657 0.462086C197.466 0.462086 197.309 0.358246 197.309 0.231331C197.309 0.104416 196.84 0.000576899 196.266 0.000576899C195.377 0.000576899 195.223 0.0688802 195.223 0.462086C195.223 0.715916 195.327 0.923595 195.455 0.923595C195.582 0.923595 195.687 0.819755 195.687 0.69284C195.687 0.565925 195.791 0.462086 195.918 0.462086C196.263 0.462086 196.199 1.13889 195.819 1.51686C195.395 1.93891 195.046 1.9343 194.61 1.50048C194.419 1.31011 194.374 1.15435 194.511 1.15435C194.647 1.15435 194.759 0.89475 194.759 0.577463C194.759 0.0319595 194.69 0.000576899 193.484 0.000576899C192.62 0.000576899 192.208 0.0935709 192.205 0.28902C192.203 0.484469 192.123 0.466009 191.956 0.231331C191.771 -0.0291904 191.681 -0.0434972 191.592 0.173643C191.528 0.332171 191.334 0.462086 191.162 0.462086C190.99 0.462086 190.783 0.669765 190.702 0.923595C190.611 1.20973 190.351 1.3851 190.019 1.3851C189.363 1.3851 188.904 0.882059 189.1 0.376014C189.196 0.125184 189.121 0.000576899 188.872 0.000576899C188.667 0.000576899 188.499 0.104416 188.499 0.231331C188.499 0.358246 188.343 0.462086 188.151 0.462086C187.96 0.462086 187.804 0.565925 187.804 0.69284C187.804 0.819755 187.647 0.923595 187.456 0.923595C187.265 0.923595 187.108 0.819755 187.108 0.69284C187.108 0.565925 186.908 0.462086 186.664 0.462086C186.419 0.462086 186.158 0.332171 186.084 0.173643C185.976 -0.0571117 185.922 -0.0571117 185.814 0.173643C185.653 0.515852 184.79 0.56431 184.79 0.231331C184.79 0.104416 184.581 0.000576899 184.326 0.000576899C184.071 0.000576899 183.862 0.104416 183.862 0.231331C183.862 0.358246 183.654 0.462086 183.399 0.462086C183.144 0.462086 182.935 0.358246 182.935 0.231331C182.935 0.104416 182.674 0.000576899 182.355 0.000576899C182.036 0.000576899 181.774 0.130492 181.772 0.28902C181.77 0.484469 181.689 0.466009 181.523 0.231331C181.337 -0.0291904 181.247 -0.0434972 181.159 0.173643C181.094 0.332402 180.685 0.462086 180.249 0.462086C179.814 0.462086 179.457 0.565925 179.457 0.69284C179.457 0.819755 179.249 0.923595 178.993 0.923595C178.684 0.923595 178.53 0.769681 178.53 0.462086C178.53 0.208256 178.425 0.000576899 178.298 0.000576899C178.17 0.000576899 178.066 0.104416 178.066 0.231331C178.066 0.358246 177.544 0.462086 176.907 0.462086C176.269 0.462086 175.748 0.565925 175.748 0.69284C175.748 0.819755 175.539 0.923595 175.284 0.923595C175.029 0.923595 174.82 0.819755 174.82 0.69284C174.82 0.565925 174.612 0.462086 174.357 0.462086C174.101 0.462086 173.893 0.565925 173.893 0.69284C173.893 0.819755 173.788 0.923595 173.661 0.923595C173.533 0.923595 173.429 0.715916 173.429 0.462086C173.429 -0.154029 172.596 -0.154029 172.434 0.462086C172.342 0.815602 172.118 0.923595 171.48 0.923595C171.022 0.923595 170.647 0.819755 170.647 0.69284C170.647 0.565925 170.499 0.462086 170.318 0.462086C170.138 0.462086 169.929 0.332402 169.855 0.173643C169.747 -0.0571117 169.692 -0.0571117 169.584 0.173643C169.51 0.332171 169.153 0.462086 168.792 0.462086C168.431 0.462086 168.074 0.332171 168 0.173643C167.892 -0.0571117 167.838 -0.0571117 167.73 0.173643C167.569 0.514929 166.242 0.566387 166.242 0.231331C166.242 -0.101647 165.378 -0.0531889 165.218 0.28902C165.11 0.519774 165.055 0.519774 164.947 0.28902C164.737 -0.159105 164.387 -0.0508814 164.387 0.462086C164.387 0.769681 164.232 0.923595 163.923 0.923595C163.668 0.923595 163.46 0.819755 163.46 0.69284C163.46 0.565925 163.14 0.462086 162.749 0.462086C162.143 0.462086 162.059 0.53062 162.184 0.923595C162.382 1.54179 161.896 1.52356 161.346 0.892443C160.986 0.479623 160.858 0.44801 160.555 0.697917C160.282 0.924056 160.129 0.93144 159.926 0.729299C159.563 0.367938 157.733 0.384783 157.585 0.750529C157.492 0.981283 157.465 0.981283 157.45 0.750529C157.44 0.592001 157.171 0.462086 156.852 0.462086C156.427 0.462086 156.272 0.585078 156.272 0.923595C156.272 1.23119 156.118 1.3851 155.809 1.3851C155.551 1.3851 155.345 1.23119 155.345 1.03897C155.345 0.848599 155.241 0.69284 155.113 0.69284C154.986 0.69284 154.881 0.848599 154.881 1.03897C154.881 1.22934 154.822 1.3851 154.749 1.3851C154.477 1.3851 153.954 0.712916 153.954 0.363092C153.954 -0.0695724 153.585 -0.118492 153.394 0.28902C153.285 0.519774 153.231 0.519774 153.123 0.28902C152.932 -0.1178 152.717 -0.0704955 152.331 0.462086ZM205.341 1.03897C205.65 1.34657 205.636 1.3851 205.209 1.3851C204.937 1.3851 204.729 1.23534 204.729 1.03897C204.729 0.848599 204.788 0.69284 204.861 0.69284C204.934 0.69284 205.15 0.848599 205.341 1.03897ZM133.435 1.15435C133.514 1.28126 133.468 1.3851 133.333 1.3851C133.198 1.3851 133.088 1.28126 133.088 1.15435C133.088 1.02743 133.133 0.923595 133.19 0.923595C133.246 0.923595 133.357 1.02743 133.435 1.15435ZM184.326 1.15435C184.326 1.28126 184.222 1.3851 184.094 1.3851C183.967 1.3851 183.862 1.28126 183.862 1.15435C183.862 1.02743 183.967 0.923595 184.094 0.923595C184.222 0.923595 184.326 1.02743 184.326 1.15435ZM193.252 1.15435C193.331 1.28126 193.285 1.3851 193.15 1.3851C193.015 1.3851 192.904 1.28126 192.904 1.15435C192.904 1.02743 192.95 0.923595 193.007 0.923595C193.063 0.923595 193.173 1.02743 193.252 1.15435ZM203.222 1.15435C203.3 1.28126 203.254 1.3851 203.119 1.3851C202.984 1.3851 202.874 1.28126 202.874 1.15435C202.874 1.02743 202.92 0.923595 202.976 0.923595C203.032 0.923595 203.143 1.02743 203.222 1.15435ZM206.583 1.50048C206.583 1.7077 206.374 1.84361 206.062 1.83923C205.553 1.83208 205.551 1.82354 205.99 1.4931C206.549 1.07243 206.583 1.07289 206.583 1.50048ZM125.437 1.61586C125.437 1.74277 125.332 1.84661 125.205 1.84661C125.077 1.84661 124.973 1.74277 124.973 1.61586C124.973 1.48894 125.077 1.3851 125.205 1.3851C125.332 1.3851 125.437 1.48894 125.437 1.61586ZM166.099 1.73793C166.294 1.93199 166.395 2.24351 166.323 2.43019C166.149 2.88085 166.085 2.8647 165.426 2.20982C165.048 1.833 164.956 1.61263 165.147 1.53579C165.617 1.34634 165.73 1.3701 166.099 1.73793ZM207.896 2.13506C207.832 2.29381 207.779 2.1639 207.779 1.84661C207.779 1.52933 207.832 1.39964 207.896 1.55817C207.961 1.71693 207.961 1.97653 207.896 2.13506ZM137.029 1.96199C137.275 2.25759 137.208 2.30812 136.565 2.30812C135.923 2.30812 135.855 2.25759 136.102 1.96199C136.26 1.77162 136.469 1.61586 136.565 1.61586C136.662 1.61586 136.87 1.77162 137.029 1.96199ZM175.574 1.76862C175.414 1.83277 175.154 1.83277 174.994 1.76862C174.835 1.7047 174.965 1.65232 175.284 1.65232C175.603 1.65232 175.733 1.7047 175.574 1.76862ZM83.3562 2.07737C83.435 2.20428 83.3367 2.30812 83.138 2.30812C82.9393 2.30812 82.7766 2.20428 82.7766 2.07737C82.7766 1.95045 82.8746 1.84661 82.9947 1.84661C83.1148 1.84661 83.2774 1.95045 83.3562 2.07737ZM102.568 2.4235C102.659 2.66025 102.554 2.76963 102.235 2.76963C101.845 2.76963 101.818 2.71494 102.069 2.43227C102.441 2.01183 102.409 2.01229 102.568 2.4235ZM182.133 2.32358C182.371 2.70663 182.157 2.75971 181.825 2.40019C181.66 2.22274 181.628 2.07737 181.753 2.07737C181.878 2.07737 182.049 2.18813 182.133 2.32358ZM215.915 2.23013C215.756 2.29428 215.495 2.29428 215.336 2.23013C215.176 2.16621 215.307 2.11383 215.625 2.11383C215.944 2.11383 216.075 2.16621 215.915 2.23013ZM84.1677 2.53888C84.1677 2.66579 84.0633 2.76963 83.9358 2.76963C83.8083 2.76963 83.704 2.66579 83.704 2.53888C83.704 2.41196 83.8083 2.30812 83.9358 2.30812C84.0633 2.30812 84.1677 2.41196 84.1677 2.53888ZM143.521 2.76963C143.521 3.07723 143.366 3.23114 143.057 3.23114C142.748 3.23114 142.593 3.07723 142.593 2.76963C142.593 2.46203 142.748 2.30812 143.057 2.30812C143.366 2.30812 143.521 2.46203 143.521 2.76963ZM212.069 3.05807C212.005 3.21683 211.952 3.08692 211.952 2.76963C211.952 2.45234 212.005 2.32266 212.069 2.48119C212.134 2.63995 212.134 2.89955 212.069 3.05807ZM214.234 2.53888C214.234 2.66579 214.13 2.76963 214.003 2.76963C213.875 2.76963 213.771 2.66579 213.771 2.53888C213.771 2.41196 213.875 2.30812 214.003 2.30812C214.13 2.30812 214.234 2.41196 214.234 2.53888ZM96.4556 2.76963C96.4556 2.89655 96.6643 3.00038 96.9193 3.00038C97.2012 3.00038 97.383 3.1543 97.383 3.39267C97.383 3.69772 97.3211 3.72334 97.1048 3.50804C96.9517 3.35575 96.6387 3.23114 96.4092 3.23114C96.1797 3.23114 95.9919 3.07538 95.9919 2.88501C95.9919 2.69464 96.0962 2.53888 96.2237 2.53888C96.3513 2.53888 96.4556 2.64272 96.4556 2.76963ZM106.425 2.90047C106.425 3.1573 106.56 3.2196 106.889 3.11576C107.218 3.01192 107.352 3.07423 107.352 3.33106C107.352 3.8131 106.277 3.80941 105.791 3.32552C105.478 3.01377 105.472 2.92747 105.75 2.75232C106.23 2.45004 106.425 2.49296 106.425 2.90047ZM115.003 2.78509C115.003 2.92654 115.201 2.969 115.467 2.88501C115.733 2.80101 115.931 2.84347 115.931 2.98492C115.931 3.12038 115.618 3.23114 115.235 3.23114C114.772 3.23114 114.54 3.11576 114.54 2.88501C114.54 2.69464 114.644 2.53888 114.772 2.53888C114.899 2.53888 115.003 2.64964 115.003 2.78509ZM119.578 2.67825C119.501 2.75486 119.3 2.76317 119.133 2.69648C118.948 2.62287 119.003 2.56818 119.273 2.55711C119.518 2.54718 119.655 2.60164 119.578 2.67825ZM132.749 2.78509C132.987 3.16814 132.774 3.22122 132.441 2.8617C132.276 2.68425 132.244 2.53888 132.369 2.53888C132.494 2.53888 132.665 2.64964 132.749 2.78509ZM138.42 2.64064C138.42 2.69671 138.316 2.80655 138.188 2.88501C138.061 2.96346 137.956 2.91754 137.956 2.78324C137.956 2.64895 138.061 2.53888 138.188 2.53888C138.316 2.53888 138.42 2.58457 138.42 2.64064ZM144.448 2.88501C144.448 3.07538 144.344 3.23114 144.216 3.23114C144.089 3.23114 143.984 3.07538 143.984 2.88501C143.984 2.69464 144.089 2.53888 144.216 2.53888C144.344 2.53888 144.448 2.69464 144.448 2.88501ZM208.365 3.04377C208.291 3.22768 208.236 3.17299 208.225 2.90416C208.215 2.66095 208.269 2.5248 208.346 2.60141C208.423 2.67802 208.432 2.87716 208.365 3.04377ZM145.376 3.00038C145.376 3.1273 145.271 3.23114 145.144 3.23114C145.016 3.23114 144.912 3.1273 144.912 3.00038C144.912 2.87347 145.016 2.76963 145.144 2.76963C145.271 2.76963 145.376 2.87347 145.376 3.00038ZM59.2864 3.50528C59.2125 3.68919 59.1575 3.6345 59.1464 3.36567C59.1364 3.12245 59.1911 2.98631 59.2681 3.06292C59.3451 3.13953 59.3534 3.33867 59.2864 3.50528ZM63.3697 3.38667C63.2552 3.68388 63.3141 3.73718 63.6262 3.61788C63.8626 3.52766 64.1759 3.60704 64.3785 3.80872C64.6866 4.11539 64.6458 4.15416 64.0134 4.15416C63.6218 4.15416 63.3013 4.05032 63.3013 3.9234C63.3013 3.79649 62.9624 3.67857 62.5478 3.66127C62.003 3.63842 61.9388 3.60219 62.316 3.52974C62.603 3.47482 62.8376 3.33313 62.8376 3.21499C62.8376 3.09707 62.9909 3.00038 63.1782 3.00038C63.4013 3.00038 63.4673 3.13353 63.3697 3.38667ZM74.2951 3.14045C74.8133 3.33821 74.7509 3.69265 74.1982 3.69265C73.9406 3.69265 73.7345 3.53874 73.7345 3.34652C73.7345 2.95816 73.7769 2.94247 74.2951 3.14045ZM76.053 3.34652C76.053 3.53689 75.9934 3.69265 75.9206 3.69265C75.8476 3.69265 75.6315 3.53689 75.4402 3.34652C75.1311 3.03892 75.1458 3.00038 75.5728 3.00038C75.845 3.00038 76.053 3.15014 76.053 3.34652ZM211.158 3.13976C211.081 3.21637 210.88 3.22468 210.713 3.15799C210.528 3.08438 210.583 3.02969 210.853 3.01861C211.098 3.00869 211.234 3.06315 211.158 3.13976ZM51.7089 3.46189C51.7089 3.58881 51.5265 3.69103 51.3032 3.68919C50.9564 3.68619 50.948 3.65296 51.2452 3.46189C51.6827 3.18037 51.7089 3.18037 51.7089 3.46189ZM65.6198 3.80803C65.6198 3.9984 65.5155 4.15416 65.388 4.15416C65.2605 4.15416 65.1561 3.9984 65.1561 3.80803C65.1561 3.61765 65.2605 3.46189 65.388 3.46189C65.5155 3.46189 65.6198 3.61765 65.6198 3.80803ZM82.081 4.3143C82.081 4.60113 82.0314 4.59928 81.7333 4.30253C81.542 4.11216 81.3855 3.83249 81.3855 3.68088C81.3855 3.47251 81.4703 3.47551 81.7333 3.69265C81.9245 3.85071 82.081 4.13039 82.081 4.3143ZM156.562 3.61465C156.403 3.6788 156.142 3.6788 155.983 3.61465C155.823 3.55073 155.954 3.49835 156.272 3.49835C156.591 3.49835 156.722 3.55073 156.562 3.61465ZM183.399 3.80803C183.399 3.9984 183.294 4.15416 183.167 4.15416C183.039 4.15416 182.935 3.9984 182.935 3.80803C182.935 3.61765 183.039 3.46189 183.167 3.46189C183.294 3.46189 183.399 3.61765 183.399 3.80803ZM191.281 3.89133C191.281 4.22523 191.152 4.2963 190.702 4.21069C189.799 4.03878 190.013 3.65711 191.108 3.48866C191.203 3.47389 191.281 3.65527 191.281 3.89133ZM192.599 3.96678C192.525 4.1507 192.47 4.09601 192.459 3.82718C192.449 3.58396 192.504 3.44782 192.581 3.52443C192.658 3.60104 192.666 3.80018 192.599 3.96678ZM204.265 3.80803C204.265 3.9984 204.161 4.15416 204.033 4.15416C203.906 4.15416 203.801 3.9984 203.801 3.80803C203.801 3.61765 203.906 3.46189 204.033 3.46189C204.161 3.46189 204.265 3.61765 204.265 3.80803ZM84.0517 3.9234C84.1306 4.05032 84.0844 4.15416 83.9495 4.15416C83.8146 4.15416 83.704 4.05032 83.704 3.9234C83.704 3.79649 83.7499 3.69265 83.8062 3.69265C83.8625 3.69265 83.9729 3.79649 84.0517 3.9234ZM115.003 3.9234C115.003 4.05032 114.899 4.15416 114.772 4.15416C114.644 4.15416 114.54 4.05032 114.54 3.9234C114.54 3.79649 114.644 3.69265 114.772 3.69265C114.899 3.69265 115.003 3.79649 115.003 3.9234ZM55.4765 4.07616C55.3172 4.14031 55.0564 4.14031 54.8969 4.07616C54.7376 4.01224 54.8679 3.95986 55.1867 3.95986C55.5055 3.95986 55.636 4.01224 55.4765 4.07616ZM67.3007 4.07616C67.1414 4.14031 66.8806 4.14031 66.7211 4.07616C66.5618 4.01224 66.6921 3.95986 67.0109 3.95986C67.3297 3.95986 67.4602 4.01224 67.3007 4.07616ZM105.498 4.26953C105.498 4.45991 105.393 4.61567 105.266 4.61567C105.138 4.61567 105.034 4.45991 105.034 4.26953C105.034 4.07916 105.138 3.9234 105.266 3.9234C105.393 3.9234 105.498 4.07916 105.498 4.26953ZM218.871 4.26953C218.871 4.45991 218.767 4.61567 218.639 4.61567C218.512 4.61567 218.408 4.45991 218.408 4.26953C218.408 4.07916 218.512 3.9234 218.639 3.9234C218.767 3.9234 218.871 4.07916 218.871 4.26953ZM223.74 4.38491C223.74 4.63874 223.636 4.84642 223.508 4.84642C223.381 4.84642 223.276 4.63874 223.276 4.38491C223.276 4.13108 223.381 3.9234 223.508 3.9234C223.636 3.9234 223.74 4.13108 223.74 4.38491ZM154.418 4.38491C154.418 4.51183 154.183 4.61405 153.896 4.61221C153.474 4.60921 153.441 4.56582 153.722 4.38491C154.172 4.09578 154.418 4.09578 154.418 4.38491ZM155.809 4.61567C155.809 4.8695 155.704 5.07718 155.577 5.07718C155.449 5.07718 155.345 4.8695 155.345 4.61567C155.345 4.36184 155.449 4.15416 155.577 4.15416C155.704 4.15416 155.809 4.36184 155.809 4.61567ZM216.457 5.01833C216.208 5.26639 216.076 4.91888 216.251 4.4756C216.415 4.05978 216.427 4.05909 216.509 4.4606C216.555 4.69274 216.532 4.94357 216.457 5.01833ZM16.2362 4.73104C16.2362 4.92142 16.1319 5.07718 16.0044 5.07718C15.8768 5.07718 15.7725 4.92142 15.7725 4.73104C15.7725 4.54067 15.8768 4.38491 16.0044 4.38491C16.1319 4.38491 16.2362 4.54067 16.2362 4.73104ZM52.2886 4.55382C52.0335 4.61728 51.7481 4.78689 51.6545 4.93088C51.5464 5.09702 51.4829 5.0451 51.4806 4.78873C51.478 4.49475 51.6505 4.3923 52.1147 4.41168C52.6034 4.43222 52.644 4.46545 52.2886 4.55382ZM77.8449 4.52429C77.768 4.6009 77.5679 4.60921 77.4007 4.54252C77.2157 4.46891 77.2706 4.41422 77.5407 4.40314C77.7851 4.39322 77.9219 4.44768 77.8449 4.52429ZM112.685 4.86003C112.685 4.97957 112.581 5.07718 112.453 5.07718C112.326 5.07718 112.221 4.91519 112.221 4.71743C112.221 4.51967 112.326 4.42183 112.453 4.50029C112.581 4.57875 112.685 4.7405 112.685 4.86003ZM120.505 4.52429C120.428 4.6009 120.228 4.60921 120.061 4.54252C119.876 4.46891 119.931 4.41422 120.201 4.40314C120.445 4.39322 120.582 4.44768 120.505 4.52429ZM148.158 4.88496C148.158 5.15978 148.128 5.34162 148.092 5.28878C148.056 5.23593 147.887 5.01072 147.716 4.78873C147.45 4.44306 147.46 4.38491 147.782 4.38491C148.013 4.38491 148.158 4.57759 148.158 4.88496ZM150.476 4.4756C150.476 4.52544 150.32 4.62605 150.128 4.6992C149.937 4.77212 149.781 4.73127 149.781 4.60851C149.781 4.48552 149.937 4.38491 150.128 4.38491C150.32 4.38491 150.476 4.42576 150.476 4.4756ZM81.7863 4.9858C81.7094 5.06241 81.5093 5.07071 81.3421 5.00403C81.1571 4.93042 81.2121 4.87573 81.4822 4.86465C81.7265 4.85473 81.8633 4.90919 81.7863 4.9858ZM88.2674 5.35131C88.1935 5.53522 88.1385 5.48053 88.1274 5.2117C88.1174 4.96849 88.1721 4.83234 88.2491 4.90896C88.3261 4.98557 88.3344 5.18471 88.2674 5.35131ZM215.625 5.07718C215.625 5.20409 215.521 5.30793 215.394 5.30793C215.266 5.30793 215.162 5.20409 215.162 5.07718C215.162 4.95026 215.266 4.84642 215.394 4.84642C215.521 4.84642 215.625 4.95026 215.625 5.07718ZM71.3595 5.59637C71.3071 5.75513 70.9593 5.91435 70.5867 5.95058L69.909 6.01658L70.4886 5.68475C71.2305 5.26016 71.4786 5.23501 71.3595 5.59637ZM40.7386 6.27433C40.6646 6.45824 40.6097 6.40355 40.5986 6.13472C40.5886 5.89151 40.6433 5.75536 40.7203 5.83197C40.7973 5.90858 40.8056 6.10772 40.7386 6.27433ZM45.6809 6.11557C45.6809 6.30594 45.5766 6.4617 45.4491 6.4617C45.3215 6.4617 45.2172 6.30594 45.2172 6.11557C45.2172 5.9252 45.3215 5.76944 45.4491 5.76944C45.5766 5.76944 45.6809 5.9252 45.6809 6.11557ZM46.7574 6.11557C47.0664 6.42317 47.0518 6.4617 46.6248 6.4617C46.3526 6.4617 46.1446 6.31194 46.1446 6.11557C46.1446 5.9252 46.2042 5.76944 46.277 5.76944C46.35 5.76944 46.5661 5.9252 46.7574 6.11557ZM77.4441 6.12918C77.4441 6.32694 77.3397 6.42478 77.2122 6.34632C77.0847 6.26787 76.9804 6.10611 76.9804 5.98658C76.9804 5.86705 77.0847 5.76944 77.2122 5.76944C77.3397 5.76944 77.4441 5.93143 77.4441 6.12918ZM80.6164 6.27433C80.5425 6.45824 80.4875 6.40355 80.4764 6.13472C80.4664 5.89151 80.5211 5.75536 80.5981 5.83197C80.6751 5.90858 80.6834 6.10772 80.6164 6.27433ZM89.6692 5.90881C89.5922 5.98542 89.3921 5.99373 89.225 5.92704C89.0399 5.85343 89.0949 5.79874 89.365 5.78767C89.6094 5.77775 89.7461 5.8322 89.6692 5.90881ZM60.6775 6.73584C60.6036 6.91975 60.5486 6.86506 60.5375 6.59623C60.5275 6.35302 60.5822 6.21687 60.6592 6.29348C60.7362 6.37009 60.7445 6.56923 60.6775 6.73584ZM66.3733 6.38371C66.214 6.44786 65.9532 6.44786 65.7937 6.38371C65.6344 6.31979 65.7647 6.26741 66.0835 6.26741C66.4023 6.26741 66.5328 6.31979 66.3733 6.38371ZM76.3428 6.38371C76.1835 6.44786 75.9227 6.44786 75.7632 6.38371C75.6039 6.31979 75.7342 6.26741 76.053 6.26741C76.3718 6.26741 76.5023 6.31979 76.3428 6.38371ZM78.4874 6.4617C78.4086 6.58862 78.246 6.69246 78.1259 6.69246C78.0058 6.69246 77.9078 6.58862 77.9078 6.4617C77.9078 6.33479 78.0705 6.23095 78.2692 6.23095C78.4679 6.23095 78.5662 6.33479 78.4874 6.4617ZM63.765 6.92321C63.765 7.05013 63.6607 7.15396 63.5332 7.15396C63.4057 7.15396 63.3013 7.05013 63.3013 6.92321C63.3013 6.7963 63.4057 6.69246 63.5332 6.69246C63.6607 6.69246 63.765 6.7963 63.765 6.92321ZM64.6924 6.92321C64.6924 7.05013 64.5881 7.15396 64.4606 7.15396C64.3331 7.15396 64.2287 7.05013 64.2287 6.92321C64.2287 6.7963 64.3331 6.69246 64.4606 6.69246C64.5881 6.69246 64.6924 6.7963 64.6924 6.92321ZM17.6273 7.84623C17.6273 7.97314 17.5814 8.07698 17.5251 8.07698C17.4687 8.07698 17.3584 7.97314 17.2795 7.84623C17.2007 7.71931 17.2468 7.61547 17.3818 7.61547C17.5167 7.61547 17.6273 7.71931 17.6273 7.84623ZM0.702401 8.20874C0.702401 8.28143 0.858899 8.49649 1.05017 8.68687C1.42762 9.06254 1.47492 9.00669 1.25721 8.44204C1.12506 8.0989 0.702401 7.92145 0.702401 8.20874Z" fill="#D72027"/>
</svg>
