<svg width="120" height="5" viewBox="0 0 120 5" fill="none" xmlns="http://www.w3.org/2000/svg">
<path fill-rule="evenodd" clip-rule="evenodd" d="M79.477 0.256714C79.3811 0.397731 79.233 0.513108 79.1479 0.513108C79.0628 0.513108 78.9923 0.585283 78.9913 0.673354C78.9899 0.792578 78.9632 0.789501 78.8866 0.66156C78.8005 0.517595 78.7389 0.517595 78.5097 0.66156C78.2936 0.797193 78.2242 0.799757 78.181 0.673354C78.1509 0.585283 77.9992 0.513108 77.844 0.513108C77.6888 0.513108 77.5343 0.585283 77.5007 0.673354C77.452 0.801551 77.4378 0.801551 77.4302 0.673354C77.424 0.570925 77.2281 0.513108 76.8863 0.513108C76.5773 0.513108 76.3224 0.445548 76.2815 0.352862C76.2251 0.224665 76.1968 0.224665 76.1405 0.352862C76.0486 0.56131 75.1637 0.56131 75.0719 0.352862C75.0155 0.224665 74.9872 0.224665 74.9308 0.352862C74.892 0.441062 74.7759 0.513108 74.6728 0.513108C74.5697 0.513108 74.3837 0.637331 74.2595 0.789116L74.0336 1.06512L73.8078 0.789116C73.5597 0.48593 73.1211 0.421063 73.025 0.673354C72.9763 0.801551 72.9621 0.801551 72.9545 0.673354C72.9382 0.400295 72.2103 0.484648 71.9618 0.788475L71.7364 1.06384L71.6603 0.660278C71.5926 0.301327 71.3724 0.079418 71.3724 0.369912C71.3724 0.432216 71.2636 0.513365 71.1305 0.550285C70.9974 0.587078 70.8886 0.709249 70.8886 0.82155C70.8886 0.933979 70.8341 1.0259 70.7676 1.0259C70.7011 1.0259 70.6466 0.85283 70.6466 0.641305C70.6466 0.342222 70.5929 0.256714 70.4047 0.256714C70.2716 0.256714 70.1628 0.314403 70.1628 0.384911C70.1628 0.45542 70.0539 0.513108 69.9209 0.513108C69.7878 0.513108 69.6789 0.45542 69.6789 0.384911C69.6789 0.314403 69.5428 0.256714 69.3765 0.256714C69.2102 0.256714 69.0741 0.314403 69.0741 0.384911C69.0741 0.45542 68.9924 0.513108 68.8927 0.513108C68.7929 0.513108 68.7112 0.45542 68.7112 0.384911C68.7112 0.154157 68.5091 0.250433 68.3749 0.545157C68.3028 0.703865 68.2401 0.761554 68.2356 0.673354C68.231 0.585283 68.1457 0.513108 68.0459 0.513108C67.9461 0.513108 67.8645 0.45542 67.8645 0.384911C67.8645 0.314403 67.7619 0.256714 67.6367 0.256714C67.373 0.256714 67.2258 0.682328 67.4188 0.88693C67.5131 0.986796 67.5091 1.0259 67.4048 1.0259C67.325 1.0259 67.2596 0.968207 67.2596 0.897699C67.2596 0.827191 67.1236 0.769502 66.9572 0.769502C66.566 0.769502 66.5453 1.18717 66.927 1.38228L67.1992 1.52138L66.937 1.52997C66.793 1.53484 66.654 1.60547 66.6283 1.68714C66.5988 1.78085 66.4613 1.80354 66.2553 1.7488C65.9901 1.67829 65.929 1.58881 65.929 1.27075C65.929 1.05551 65.8512 0.796936 65.7562 0.696302C65.5082 0.433498 65.0436 0.470675 64.8404 0.769502C64.6111 1.10653 64.2355 1.10653 64.2355 0.769502C64.2355 0.598616 64.1549 0.513108 63.9936 0.513108C63.8605 0.513108 63.7517 0.570797 63.7517 0.641305C63.7517 0.711813 63.67 0.769502 63.5702 0.769502C63.4704 0.769502 63.3888 0.711813 63.3888 0.641305C63.3888 0.568746 63.0407 0.513108 62.5864 0.513108C61.9198 0.513108 61.7466 0.559003 61.5619 0.784629C61.3213 1.07871 60.9695 1.0341 60.9695 0.709378C60.9695 0.477213 60.528 0.442728 60.4566 0.66938C60.4189 0.789501 60.2863 0.783091 59.8808 0.641305C59.4754 0.499519 59.3428 0.49311 59.305 0.61323C59.2448 0.8045 57.8244 0.831293 57.8244 0.641305C57.8244 0.373374 57.5136 0.530543 57.316 0.898468C57.1655 1.17858 57.0201 1.28229 56.7777 1.28229C56.5192 1.28229 56.4777 1.24806 56.5906 1.12845C56.834 0.870521 56.7556 0.769502 56.3124 0.769502C56.0795 0.769502 55.889 0.711813 55.889 0.641305C55.889 0.447856 54.352 0.478239 54.266 0.673354C54.2097 0.801551 54.1814 0.801551 54.125 0.673354C54.041 0.482854 53.7117 0.457343 53.7117 0.641305C53.7117 0.711813 53.63 0.769502 53.5302 0.769502C53.4304 0.769502 53.3488 0.711813 53.3488 0.641305C53.3488 0.570797 53.1887 0.513108 52.993 0.513108C52.7973 0.513108 52.6036 0.570797 52.5625 0.641305C52.465 0.808602 51.4133 0.808602 51.4133 0.641305C51.4133 0.570797 51.2773 0.513108 51.1109 0.513108C50.9446 0.513108 50.8085 0.577848 50.8085 0.656945C50.8085 0.753349 50.7455 0.745401 50.6179 0.633229C50.4599 0.494263 50.408 0.497084 50.3155 0.64951C50.2189 0.808474 50.1859 0.807448 50.0735 0.641305C49.9756 0.496571 49.9281 0.488623 49.882 0.609256C49.8025 0.817063 49.3932 0.817063 49.3228 0.609256C49.2861 0.500545 49.1906 0.541824 49.0263 0.737453C48.7716 1.04089 48.4547 1.11371 48.3288 0.897699C48.2273 0.723736 47.4562 0.734504 47.3531 0.911416C47.2938 1.01308 47.2449 1.00974 47.1807 0.899622C47.1114 0.780783 47.0361 0.782322 46.8486 0.906288C46.6427 1.04256 46.5651 1.02628 46.3342 0.798346C46.1106 0.577719 46.0217 0.556695 45.8347 0.680533C45.7095 0.763349 45.6071 0.932697 45.6071 1.05679C45.6071 1.39087 44.9997 1.36369 44.9164 1.0259C44.8518 0.76399 44.6393 0.665791 44.6393 0.897699C44.6393 0.968207 44.4216 1.0259 44.1555 1.0259C43.8894 1.0259 43.6716 0.968207 43.6716 0.897699C43.6716 0.655663 43.2014 0.769502 43.0098 1.05795C42.8595 1.28421 42.7961 1.30895 42.716 1.17319C42.6015 0.978719 41.4227 0.997308 41.1616 1.19768C41.0655 1.27152 41.0104 1.26139 41.0104 1.16973C41.0104 1.09064 40.9288 1.0259 40.829 1.0259C40.7292 1.0259 40.6475 1.08358 40.6475 1.15409C40.6475 1.2246 40.5931 1.28229 40.5266 1.28229C40.46 1.28229 40.4056 1.19524 40.4056 1.08897C40.4056 0.927569 40.3654 0.922056 40.1637 1.05564C40.0306 1.14371 39.9181 1.3028 39.9135 1.40933C39.9084 1.53009 39.8557 1.49356 39.7732 1.31216C39.6816 1.11076 39.5729 1.04461 39.4185 1.09653C39.2671 1.14743 39.196 1.10717 39.196 0.970387C39.196 0.859881 39.1415 0.769502 39.075 0.769502C39.0085 0.769502 38.954 0.884879 38.954 1.0259C38.954 1.30985 38.7677 1.3728 38.6695 1.12204C38.626 1.01103 38.5333 1.05038 38.3678 1.25024C38.0895 1.58637 37.9863 1.61304 37.9863 1.34882C37.9863 1.03577 37.0256 0.920133 36.686 1.19242C36.5869 1.27191 36.5347 1.26409 36.5347 1.16973C36.5347 0.98795 36.0918 0.980386 35.9868 1.16037C35.9374 1.24498 35.8564 1.25037 35.768 1.17499C35.5745 1.01013 34.4784 1.00359 34.4784 1.16743C34.4784 1.24127 34.3715 1.2637 34.2364 1.21819C34.0603 1.15896 33.9945 1.19512 33.9945 1.35152C33.9945 1.50574 33.9349 1.54009 33.7828 1.47356C33.4471 1.32677 32.7849 1.29203 32.7849 1.42113C32.7849 1.48574 32.7304 1.53868 32.6639 1.53868C32.5974 1.53868 32.5429 1.42331 32.5429 1.28229C32.5429 1.01692 32.251 0.928466 32.1196 1.15409C32.0784 1.2246 31.8879 1.28229 31.6962 1.28229C31.5045 1.28229 31.3122 1.3428 31.2692 1.41677C31.2153 1.50894 31.1383 1.50497 31.0235 1.40395C30.8283 1.23229 30.5504 1.45907 30.455 1.86828C30.4107 2.05801 30.376 2.01865 30.3058 1.69893C30.2427 1.41151 30.1441 1.28229 29.9876 1.28229C29.8628 1.28229 29.7608 1.34382 29.7608 1.41908C29.7608 1.49676 29.6431 1.52497 29.4886 1.48446C29.339 1.4451 29.2845 1.446 29.3676 1.48651C29.6028 1.60086 29.5457 1.79508 29.2769 1.79508C29.1343 1.79508 29.035 1.70957 29.035 1.58676C29.035 1.42472 28.9561 1.3951 28.6805 1.45356C28.4562 1.50112 28.3064 1.47176 28.2723 1.37344C28.2306 1.25306 28.1824 1.25421 28.0582 1.37844C27.8642 1.5724 26.9323 1.59009 26.6077 1.406C26.3831 1.27857 26.3098 1.36523 26.3595 1.69893C26.3837 1.86148 26.1613 1.8052 26.099 1.63316C26.0582 1.52009 25.7912 1.48061 25.2149 1.50253C24.6747 1.52304 24.3584 1.48087 24.2997 1.38023C24.2364 1.27178 24.1318 1.31972 23.945 1.54279C23.7688 1.75303 23.6617 1.80546 23.6257 1.69893C23.5886 1.58932 23.2724 1.53868 22.6239 1.53868C21.9841 1.53868 21.6534 1.48664 21.6057 1.37844C21.5493 1.25024 21.521 1.25024 21.4647 1.37844C21.4258 1.46651 21.3106 1.53868 21.2086 1.53868C21.0827 1.53868 21.0435 1.62099 21.0864 1.79508C21.1211 1.93609 21.1003 2.05147 21.04 2.05147C20.9797 2.05147 20.9304 1.94571 20.9304 1.81649C20.9304 1.44677 20.8099 1.40997 20.5391 1.69701C20.2954 1.9552 20.2843 1.95584 20.1227 1.72162C19.9836 1.51997 19.9181 1.50651 19.7194 1.63804C19.5889 1.72444 19.4043 1.79508 19.3091 1.79508C19.2139 1.79508 19.1084 1.86725 19.0747 1.95532C19.0263 2.08173 18.99 2.08032 18.9024 1.94879C18.8129 1.81405 18.728 1.81264 18.4609 1.94161C18.2035 2.06596 18.0791 2.06737 17.8989 1.94814C17.7718 1.86392 17.5689 1.79508 17.4483 1.79508C17.3276 1.79508 17.1635 1.72585 17.0837 1.64124C16.9709 1.52163 16.9386 1.52163 16.9386 1.64124C16.9386 1.72585 16.8569 1.79508 16.7571 1.79508C16.6573 1.79508 16.5722 1.86725 16.568 1.95532C16.5638 2.04352 16.5066 1.97276 16.4408 1.79815C16.3722 1.61586 16.2854 1.53715 16.2368 1.61304C16.1333 1.77508 15.1298 1.77367 14.8893 1.61111C14.7751 1.53394 14.6987 1.54522 14.6676 1.64419C14.61 1.82713 13.9145 1.84802 13.9145 1.66688C13.9145 1.59637 13.8056 1.53868 13.6725 1.53868C13.5113 1.53868 13.4306 1.62419 13.4306 1.79508C13.4306 1.97609 13.3505 2.05083 13.1584 2.04955C12.9371 2.04788 12.9201 2.02391 13.0677 1.92058C13.1958 1.83097 13.0283 1.80174 12.4982 1.8211C12.0852 1.83623 11.7086 1.80764 11.6613 1.75752C11.614 1.70739 11.4802 1.75752 11.3638 1.86918C11.2096 2.01699 11.0924 2.03788 10.9305 1.94609C10.5925 1.75431 9.89119 1.72649 9.62023 1.89405C9.48717 1.97635 9.4464 2.04545 9.5295 2.04763C9.61273 2.04968 9.67889 2.12365 9.67672 2.21172C9.6726 2.37427 9.26665 1.92392 9.15512 1.63316C9.10843 1.51151 9.06742 1.51535 8.97863 1.64945C8.88815 1.78636 8.35978 1.82623 6.55016 1.8329C4.39736 1.84072 4.23732 1.85751 4.23732 2.07468C4.23732 2.22236 4.14866 2.30787 3.99539 2.30787C3.86233 2.30787 3.75347 2.25018 3.75347 2.17967C3.75347 2.10916 3.69903 2.05147 3.6325 2.05147C3.56597 2.05147 3.51154 2.138 3.51154 2.24377C3.51154 2.34953 3.46545 2.43606 3.40908 2.43606C3.21832 2.43606 2.78575 1.95853 2.78575 1.74803C2.78575 1.63291 2.73132 1.53868 2.66479 1.53868C2.59826 1.53868 2.54382 1.44805 2.54382 1.33729C2.54382 1.05641 2.1565 0.655022 2.08985 0.866804C2.06227 0.954362 1.9355 1.0259 1.808 1.0259C1.6805 1.0259 1.57611 1.08358 1.57611 1.15409C1.57611 1.2246 1.3533 1.28229 1.08088 1.28229C0.680735 1.28229 0.573077 1.33357 0.519853 1.54958C0.470983 1.74726 0.428525 1.77316 0.356309 1.64932C0.166154 1.32344 0.0715597 1.69496 0.0237789 2.95526C-0.0243648 4.22697 -0.0236391 4.23082 0.262804 4.23082C0.420904 4.23082 0.618197 4.3462 0.701299 4.48721C0.861818 4.75963 1.38136 4.82963 1.69296 4.62079C1.80788 4.54375 1.93199 4.5558 2.04533 4.65477C2.18142 4.77373 2.23162 4.77207 2.27117 4.64746C2.33141 4.45773 2.78575 4.4294 2.78575 4.61541C2.78575 4.68592 3.08514 4.74361 3.45106 4.74361C3.81697 4.74361 4.11636 4.8013 4.11636 4.8718C4.11636 4.94231 4.33409 5 4.60022 5C4.86634 5 5.08407 4.94231 5.08407 4.8718C5.08407 4.8013 5.19294 4.74361 5.326 4.74361C5.48725 4.74361 5.56793 4.6581 5.56793 4.48721C5.56793 4.30556 5.64728 4.23197 5.8401 4.23492C6.09884 4.23877 6.10126 4.24787 5.88957 4.41773C5.72313 4.55144 5.69663 4.65284 5.78445 4.81924C5.89163 5.02205 5.90941 5.01718 5.98501 4.7645C6.06739 4.48965 6.41468 4.36914 6.41468 4.61541C6.41468 4.80937 7.95358 4.77873 8.02846 4.58336C8.07467 4.46234 8.1239 4.47016 8.22914 4.61541C8.33438 4.76066 8.38361 4.76848 8.42982 4.64746C8.50264 4.4576 8.95492 4.42991 8.95492 4.61541C8.95492 4.79668 9.84437 4.77527 10.0194 4.58977C10.1323 4.47016 10.1646 4.47016 10.1646 4.58977C10.1646 4.67438 10.2501 4.74361 10.3546 4.74361C10.5662 4.74361 10.7751 4.55246 10.9852 4.16672C11.1213 3.91712 11.125 3.91802 11.1286 4.19877C11.1314 4.41991 11.2028 4.48721 11.4347 4.48721C11.601 4.48721 11.7371 4.5449 11.7371 4.61541C11.7371 4.68592 11.9548 4.74361 12.221 4.74361C12.4871 4.74361 12.7048 4.68733 12.7048 4.61861C12.7048 4.5499 12.8818 4.52157 13.0979 4.5558C13.3142 4.5899 13.4231 4.58374 13.3399 4.54182C13.1605 4.4517 13.1351 3.97443 13.3096 3.97443C13.3762 3.97443 13.4306 4.03211 13.4306 4.10262C13.4306 4.17313 13.535 4.23082 13.6625 4.23082C13.79 4.23082 13.9261 4.30287 13.9649 4.39106C14.0213 4.51926 14.0496 4.51926 14.1059 4.39106C14.1448 4.30287 14.2809 4.23082 14.4083 4.23082C14.536 4.23082 14.6402 4.17313 14.6402 4.10262C14.6402 4.03211 14.6947 3.97443 14.7612 3.97443C14.8277 3.97443 14.8822 4.06096 14.8822 4.16672C14.8822 4.27248 14.8277 4.35902 14.7612 4.35902C14.6947 4.35902 14.6402 4.44555 14.6402 4.55131C14.6402 4.65707 14.7219 4.74361 14.8217 4.74361C14.9215 4.74361 15.004 4.67156 15.0049 4.58336C15.0063 4.47478 15.0432 4.48401 15.1194 4.61169C15.2419 4.81694 15.2644 4.80476 15.4655 4.42311C15.5398 4.2821 15.6023 4.2389 15.6043 4.32697C15.6087 4.52106 16.6966 4.55298 16.6966 4.35902C16.6966 4.28851 16.8055 4.23082 16.9386 4.23082C17.0716 4.23082 17.1805 4.28851 17.1805 4.35902C17.1805 4.42952 17.4118 4.4826 17.6946 4.47709C17.9774 4.47157 18.1407 4.43786 18.0575 4.40235C17.8786 4.32581 17.8517 3.71803 18.0272 3.71803C18.0938 3.71803 18.1482 3.83341 18.1482 3.97443C18.1482 4.11544 18.2026 4.23082 18.2692 4.23082C18.3357 4.23082 18.3901 4.3462 18.3901 4.48721C18.3901 4.62823 18.4446 4.74361 18.5111 4.74361C18.5776 4.74361 18.6321 4.68592 18.6321 4.61541C18.6321 4.5449 18.927 4.48721 19.2873 4.48721C19.6982 4.48721 19.9652 4.42747 20.0035 4.32697C20.0523 4.19877 20.0664 4.19877 20.0741 4.32697C20.0862 4.53003 20.5804 4.53388 20.9939 4.33427C21.2387 4.21608 21.3308 4.21595 21.3996 4.33389C21.5285 4.55503 22.1378 4.23249 22.139 3.94238C22.1395 3.81905 22.0856 3.71803 22.019 3.71803C21.9525 3.71803 21.8981 3.66034 21.8981 3.58983C21.8981 3.51933 22.0106 3.46164 22.1481 3.46164C22.3379 3.46164 22.3809 3.51984 22.3261 3.7029C22.2805 3.85507 22.3221 3.97186 22.4388 4.01929C22.5406 4.0607 22.6239 4.18287 22.6239 4.29094C22.6239 4.39889 22.6783 4.48721 22.7448 4.48721C22.8114 4.48721 22.8658 4.43837 22.8658 4.37863C22.8658 4.31889 22.9883 4.20736 23.138 4.13083C23.3614 4.01673 23.3713 3.99019 23.1934 3.98314C23.0742 3.97827 22.8598 3.85905 22.717 3.71803C22.4967 3.50061 22.4883 3.46164 22.6615 3.46164C22.7739 3.46164 22.8658 3.51933 22.8658 3.58983C22.8658 3.66034 23.0291 3.71803 23.2287 3.71803C23.5109 3.71803 23.5916 3.77495 23.5916 3.97443C23.5916 4.11544 23.646 4.23082 23.7125 4.23082C23.7791 4.23082 23.8335 4.17313 23.8335 4.10262C23.8335 4.03211 23.8879 3.97443 23.9545 3.97443C24.021 3.97443 24.0754 4.0898 24.0754 4.23082C24.0754 4.40171 24.1561 4.48721 24.3174 4.48721C24.4504 4.48721 24.5593 4.42952 24.5593 4.35902C24.5593 4.28851 24.5049 4.23082 24.4383 4.23082C24.3718 4.23082 24.3174 4.17313 24.3174 4.10262C24.3174 4.03122 24.5987 3.98212 24.9524 3.99186C25.3017 4.00147 25.465 4.03429 25.3153 4.06493C24.9394 4.14159 24.964 4.48721 25.3456 4.48721C25.5119 4.48721 25.648 4.42952 25.648 4.35902C25.648 4.28851 25.7841 4.23082 25.9504 4.23082C26.1167 4.23082 26.2528 4.28851 26.2528 4.35902C26.2528 4.42952 26.3344 4.48721 26.4342 4.48721C26.534 4.48721 26.6157 4.42952 26.6157 4.35902C26.6157 4.28684 26.9551 4.23082 27.392 4.23082C28.2766 4.23082 28.5511 4.15172 28.5511 3.89661C28.5511 3.79841 28.5822 3.71803 28.6202 3.71803C28.7622 3.71803 29.035 4.09147 29.035 4.28582C29.035 4.39658 29.0894 4.48721 29.1559 4.48721C29.2225 4.48721 29.2769 4.42952 29.2769 4.35902C29.2769 4.28851 29.5835 4.23082 29.9583 4.23082C30.6948 4.23082 31.0733 3.96071 31.1085 3.40997C31.118 3.26216 31.1587 3.3719 31.1993 3.65393L31.2728 4.16672L32.2174 4.18787C33.0215 4.20582 33.1959 4.25043 33.3896 4.48696C33.5694 4.70681 33.6628 4.73681 33.836 4.63002C33.9564 4.5558 33.987 4.49324 33.9038 4.49106C33.6806 4.48542 33.7201 4.27248 33.9643 4.16505C34.0806 4.11377 34.4744 4.04596 34.8391 4.01417C35.2039 3.98237 35.5802 3.88828 35.6753 3.80508C35.809 3.68829 35.8599 3.69034 35.8992 3.81418C35.9271 3.90238 36.0544 3.97443 36.1819 3.97443C36.3095 3.97443 36.4138 4.0316 36.4138 4.1016C36.4138 4.31222 37.1657 4.15711 37.3352 3.91135C37.472 3.71329 37.5408 3.7038 37.8517 3.8402C38.049 3.92686 38.3233 3.95968 38.4612 3.91328C38.6081 3.86392 38.7121 3.88571 38.7121 3.96584C38.7121 4.04109 38.7665 4.10262 38.8331 4.10262C39.0398 4.10262 38.9662 3.82341 38.6936 3.57278C38.5504 3.44113 38.3288 3.33344 38.2011 3.33344C37.9884 3.33344 37.9851 3.31639 38.1627 3.1282C38.3941 2.88296 38.954 2.98462 38.954 3.27178C38.954 3.37626 39.0085 3.46164 39.075 3.46164C39.1415 3.46164 39.196 3.56984 39.196 3.70201C39.196 4.17223 40.6337 4.16864 41.0246 3.69752C41.1322 3.56778 41.32 3.46164 41.4419 3.46164C41.6144 3.46164 41.6313 3.49587 41.5185 3.61547C41.4386 3.70008 41.3733 3.81546 41.3733 3.87187C41.3733 4.0375 41.7103 3.9893 41.7771 3.81418C41.8258 3.68598 41.84 3.68598 41.8476 3.81418C41.8589 4.00301 42.2201 4.03416 42.2201 3.84623C42.2201 3.66688 42.9877 3.68547 43.1609 3.86905C43.2703 3.98494 43.3566 3.9552 43.5319 3.74085C43.8157 3.39421 43.9136 3.38831 43.9136 3.71803C43.9136 3.85905 43.968 3.97443 44.0345 3.97443C44.1011 3.97443 44.1555 3.88379 44.1555 3.77303C44.1555 3.57868 44.4283 3.20524 44.5703 3.20524C44.6083 3.20524 44.6393 3.29178 44.6393 3.39754C44.6393 3.5033 44.5849 3.58983 44.5184 3.58983C44.4519 3.58983 44.3974 3.65368 44.3974 3.73175C44.3974 3.81162 44.4857 3.83777 44.5994 3.79149C44.7106 3.74636 44.8397 3.77495 44.8865 3.85507C44.949 3.96237 45.0374 3.96353 45.2208 3.85943C45.358 3.78162 45.6326 3.71803 45.831 3.71803C46.0293 3.71803 46.2191 3.64598 46.2528 3.55779C46.3015 3.42959 46.3157 3.42959 46.3233 3.55779C46.3302 3.67406 46.6484 3.71803 47.482 3.71803C48.1675 3.71803 48.6312 3.76982 48.6312 3.84623C48.6312 3.91674 48.74 3.97443 48.8731 3.97443C49.0061 3.97443 49.115 3.91289 49.115 3.83764C49.115 3.75905 49.2182 3.73547 49.3569 3.78213C49.5286 3.83982 49.5989 3.80521 49.5989 3.66252C49.5989 3.55202 49.6533 3.46164 49.7198 3.46164C49.8939 3.46164 49.8691 3.11051 49.6896 3.03372C49.6065 2.99821 49.6608 2.96449 49.8106 2.95898C49.976 2.95282 50.0827 3.02423 50.0827 3.14114C50.0827 3.24691 50.1372 3.33344 50.2037 3.33344C50.2702 3.33344 50.3247 3.24691 50.3247 3.14114C50.3247 2.89475 50.4149 2.89796 50.6554 3.15281C50.8164 3.32344 50.8205 3.37459 50.6803 3.46638C50.4499 3.6174 50.7859 3.75213 51.252 3.6956C51.524 3.66252 51.6026 3.58125 51.633 3.30139C51.6781 2.88642 51.8943 2.84527 52.1391 3.20524C52.3336 3.49125 52.622 3.5483 52.6248 3.30139C52.6261 3.18845 52.6587 3.19473 52.7351 3.32254C52.8419 3.50151 53.6001 3.54984 53.8394 3.39305C53.9031 3.35139 53.9878 3.40703 54.0276 3.51689C54.1445 3.83956 54.3165 3.61124 54.3165 3.13358C54.3165 2.8909 54.3709 2.69246 54.4374 2.69246C54.504 2.69246 54.5584 2.80783 54.5584 2.94885C54.5584 3.08987 54.6128 3.20524 54.6794 3.20524C54.7459 3.20524 54.8003 3.29562 54.8003 3.40613C54.8003 3.54074 54.8717 3.58317 55.0165 3.53445C55.4304 3.3951 56.6631 3.42279 56.7101 3.5724C56.7966 3.84725 56.9604 3.71752 57.1736 3.20524C57.4005 2.66041 57.6818 2.54823 57.953 2.89449C58.0822 3.05948 58.0826 3.11538 57.955 3.19896C57.6735 3.38331 57.9876 3.43831 59.3689 3.44625C60.5967 3.4533 60.7446 3.42933 60.8789 3.2014C61.0699 2.87732 61.2114 2.87885 61.2114 3.20524C61.2114 3.50151 61.3432 3.51497 61.9587 3.28203C62.2033 3.18948 62.6354 3.1382 62.9188 3.16819C63.2023 3.19832 63.561 3.15089 63.7164 3.06282C63.9331 2.93988 64.0316 2.93782 64.1412 3.05397C64.3434 3.26832 64.7194 3.24165 64.7194 3.01295C64.7194 2.90719 64.665 2.82065 64.5984 2.82065C64.5319 2.82065 64.4775 2.73412 64.4775 2.62836C64.4775 2.48619 64.6116 2.43837 64.9916 2.44478C65.4503 2.45247 65.4763 2.46837 65.2335 2.59246C65.0631 2.67964 64.9613 2.84693 64.9613 3.04C64.9613 3.34677 64.9664 3.34806 65.9941 3.28139C66.562 3.2446 67.0792 3.18012 67.1433 3.1382C67.3437 3.00692 67.2708 2.84078 66.9875 2.78296C66.7198 2.72822 66.72 2.72707 67.0036 2.70989C67.1621 2.70028 67.3908 2.81347 67.512 2.96154C67.6331 3.10948 67.8028 3.20537 67.889 3.1746C67.9753 3.14384 68.1065 3.20576 68.1805 3.31229C68.2946 3.47625 68.3407 3.4501 68.4829 3.14063C68.7042 2.65925 68.9229 2.5958 68.9229 3.01295C68.9229 3.19512 68.9499 3.37267 68.9829 3.40767C69.0726 3.50279 69.6789 3.18319 69.6789 3.04077C69.6789 2.97295 69.7565 2.98564 69.8512 3.06897C70.1014 3.28908 71.6143 3.32818 71.6143 3.11448C71.6143 3.02346 71.6688 2.94885 71.7353 2.94885C71.8018 2.94885 71.8563 3.03897 71.8563 3.14922C71.8563 3.26511 71.9454 3.3378 72.068 3.32177C72.1843 3.30652 72.3723 3.3369 72.4855 3.38921C72.5988 3.44151 72.7621 3.43741 72.8484 3.3801C72.9348 3.32267 73.1008 3.29229 73.2171 3.31267C73.4649 3.35588 73.5204 2.87462 73.2776 2.78822C73.1595 2.74617 73.164 2.65964 73.298 2.39299C73.5009 1.9893 73.7886 1.94699 73.8776 2.30787C73.9124 2.44888 73.989 2.56426 74.0478 2.56426C74.1065 2.56426 74.1546 2.65438 74.1546 2.76463C74.1546 2.88847 74.0693 2.94962 73.9312 2.92488C73.651 2.8745 73.5841 3.12499 73.8615 3.18576C73.9735 3.21037 74.1108 3.15268 74.1667 3.05756C74.2516 2.91295 74.3123 2.91372 74.5385 3.06243C74.7381 3.19371 74.8214 3.20063 74.8564 3.08923C74.8864 2.99385 74.9553 2.98141 75.0433 3.05551C75.12 3.12012 75.4355 3.21165 75.7443 3.25896C76.2563 3.33741 76.3283 3.31472 76.5608 3.00141C76.701 2.81245 76.8158 2.71066 76.8158 2.77527C76.8158 2.98167 77.4893 3.1823 77.7212 3.04487C77.8606 2.96218 78.1545 2.96667 78.5843 3.0582C79.2229 3.19409 79.598 3.15243 79.598 2.94577C79.598 2.88873 79.53 2.81296 79.4468 2.77732C79.3621 2.74117 79.3957 2.70822 79.5233 2.70258C79.6485 2.69707 79.8558 2.8204 79.9837 2.9768C80.1813 3.21819 80.235 3.23268 80.3397 3.07294C80.4332 2.93039 80.478 2.92359 80.5244 3.045C80.6228 3.30178 81.2155 3.2355 81.3844 2.94885C81.5599 2.65092 81.7753 2.61054 81.7753 2.87565C81.7753 3.09897 82.913 3.13474 83.632 2.93398C84.0082 2.82886 84.1378 2.84245 84.3069 3.00462C84.4219 3.11499 84.5799 3.20524 84.6578 3.20524C84.8975 3.20524 84.8143 2.85462 84.5575 2.78348C84.4244 2.74668 84.3156 2.62631 84.3156 2.51619C84.3156 2.3785 84.3818 2.34248 84.5273 2.40081C84.8101 2.51439 84.9809 2.71669 84.9809 2.93821C84.9809 3.03807 85.049 3.14384 85.1321 3.17319C85.2153 3.20255 85.2833 3.17666 85.2833 3.11563C85.2833 3.05461 85.5382 2.99282 85.8498 2.97846C86.1613 2.96411 86.4557 2.88449 86.5041 2.80168C86.5679 2.69194 86.6468 2.70899 86.7931 2.86398C86.9036 2.98116 87.0388 3.07705 87.0934 3.07705C87.2638 3.07705 87.3276 2.73091 87.1851 2.5799C87.0848 2.47362 87.0915 2.43606 87.2106 2.43606C87.2993 2.43606 87.4598 2.54106 87.5675 2.66925C87.7812 2.92424 88.1864 3.12474 88.1864 2.97564C88.1864 2.92436 88.288 2.81501 88.4123 2.73284C88.5872 2.61708 88.709 2.62233 88.9527 2.75643C89.4843 3.04872 89.839 3.03795 90.0977 2.72207C90.3391 2.42696 90.7267 2.44247 90.7267 2.7472C90.7267 2.95218 92.8 3.01692 93.1425 2.82258C93.3077 2.72886 93.3879 2.72681 93.3879 2.81617C93.3879 3.02577 93.8715 2.97052 93.9506 2.75194C94.0146 2.57516 94.0508 2.57503 94.3042 2.75104C94.5612 2.92962 94.5971 2.92718 94.7048 2.72361C94.8173 2.51131 94.8272 2.51131 94.9048 2.72451C94.9667 2.89514 95.1258 2.94885 95.5681 2.94885C95.9153 2.94885 96.1784 2.88424 96.2205 2.7886C96.2769 2.66041 96.3052 2.66041 96.3615 2.7886C96.4624 3.01744 96.7808 2.98526 97.181 2.70566C97.5031 2.48067 97.5113 2.45478 97.3019 2.32581C97.093 2.1971 97.0963 2.18723 97.3495 2.18351C97.5226 2.18108 97.6216 2.2562 97.6216 2.38991C97.6216 2.50554 97.7132 2.67105 97.8251 2.75771C97.9918 2.88693 98.0725 2.87206 98.2715 2.67553C98.405 2.54362 98.5448 2.48619 98.5821 2.54798C98.6896 2.7263 99.3583 2.83193 99.5507 2.70105C99.6647 2.62349 99.8702 2.64592 100.14 2.7654C100.614 2.97513 101.613 3.01256 101.613 2.82065C101.613 2.75014 101.668 2.69246 101.734 2.69246C101.801 2.69246 101.855 2.77899 101.855 2.88475C101.855 3.12397 101.984 3.12884 102.279 2.90039C102.473 2.75027 102.532 2.75027 102.674 2.90052C102.772 3.00436 102.957 3.04628 103.123 3.00218C103.278 2.9609 103.518 2.9909 103.656 3.0691C103.842 3.17486 103.966 3.17127 104.142 3.05513C104.327 2.9327 104.447 2.93257 104.7 3.05461C104.987 3.19306 105.029 3.18178 105.086 2.95129C105.146 2.7072 105.362 2.58092 105.364 2.7886C105.366 2.92988 105.974 3.20524 106.285 3.20524C106.432 3.20524 106.58 3.1332 106.614 3.045C106.662 2.92026 106.701 2.92321 106.79 3.0582C106.869 3.17781 106.976 3.19589 107.132 3.1164C107.402 2.97949 108.091 2.98641 108.493 3.13012C108.691 3.20063 108.813 3.17819 108.885 3.05871C108.942 2.96308 108.989 2.94667 108.99 3.02218C108.993 3.21268 110.704 3.25357 110.813 3.06577C110.874 2.9609 110.97 2.96385 111.169 3.07653C111.318 3.16127 111.856 3.25165 112.364 3.27716C112.871 3.30267 113.632 3.36011 114.055 3.40472C114.861 3.48971 115.293 3.32434 114.919 3.07371C114.789 2.98654 114.873 2.95449 115.222 2.95898C115.643 2.96423 115.669 2.98064 115.426 3.0841C115.093 3.2255 115.176 3.46702 115.524 3.37049C115.657 3.3337 115.766 3.35357 115.766 3.41459C115.766 3.47574 116.052 3.52676 116.401 3.52817C116.751 3.52945 117.132 3.57894 117.248 3.63804C117.426 3.72829 117.46 3.68201 117.46 3.34716C117.46 2.88309 117.535 2.85321 117.821 3.20332C117.976 3.39267 118.165 3.45266 118.561 3.43766C118.854 3.42677 119.27 3.461 119.486 3.51394C119.8 3.59073 119.895 3.56586 119.959 3.39074C120.002 3.27011 119.975 3.06436 119.898 2.93359C119.726 2.64182 119.715 2.17967 119.879 2.17967C119.946 2.17967 120 1.97776 120 1.73098C120 1.42177 119.945 1.28229 119.822 1.28229C119.724 1.28229 119.46 1.17268 119.235 1.03872C118.97 0.880521 118.767 0.834882 118.657 0.908596C118.522 0.999487 118.53 1.02231 118.7 1.02397C118.816 1.025 118.911 1.08358 118.911 1.15409C118.911 1.2246 118.775 1.28229 118.609 1.28229C118.443 1.28229 118.307 1.23345 118.307 1.17371C118.307 1.11397 118.205 0.940901 118.081 0.789116C117.859 0.518492 117.277 0.407858 117.198 0.621435C117.119 0.832959 116.261 0.891033 116.078 0.697199C115.879 0.486315 115.333 0.450676 115.222 0.641305C115.11 0.833729 113.502 0.805013 113.427 0.609256C113.381 0.488623 113.334 0.496571 113.237 0.641305C113.15 0.771681 113.108 0.781937 113.107 0.673354C113.106 0.585283 113.023 0.513108 112.924 0.513108C112.824 0.513108 112.742 0.448369 112.742 0.369271C112.742 0.275687 112.672 0.286841 112.541 0.40132C112.384 0.538491 112.329 0.541952 112.289 0.416961C112.208 0.163131 112.016 0.230819 112.016 0.513108C112.016 0.740401 111.936 0.769502 111.305 0.769502C110.695 0.769502 110.584 0.732838 110.53 0.513108C110.469 0.265688 110.081 0.140824 110.081 0.36863C110.081 0.430165 109.836 0.485802 109.537 0.492212C109.237 0.498494 108.992 0.448112 108.992 0.380296C108.992 0.312352 108.779 0.256714 108.518 0.256714C108.253 0.256714 108.018 0.186334 107.983 0.0964682C107.937 -0.0241651 107.89 -0.0162169 107.792 0.128517C107.676 0.299404 107.647 0.299404 107.532 0.128517C107.434 -0.0162169 107.386 -0.0241651 107.34 0.0964682C107.26 0.306198 106.368 0.306198 106.297 0.0964682C106.268 0.0082687 106.201 -0.0218576 106.149 0.029293C106.097 0.0804436 106.123 0.210307 106.208 0.317736C106.312 0.451317 106.318 0.513108 106.225 0.513108C106.15 0.513108 106.089 0.45542 106.089 0.384911C106.089 0.190949 105.001 0.22287 104.996 0.416961C104.994 0.50516 104.89 0.447471 104.765 0.288764C104.482 -0.070957 104.195 -0.0815974 104.091 0.263765L104.012 0.52721L103.797 0.263765C103.569 -0.0145504 103.307 -0.0868534 103.307 0.128517C103.307 0.199026 103.225 0.256714 103.126 0.256714C103.026 0.256714 102.944 0.199026 102.944 0.128517C102.944 0.0580091 102.699 0.0003205 102.4 0.0003205C101.936 0.0003205 101.855 0.0382668 101.855 0.256714C101.855 0.397731 101.91 0.513108 101.976 0.513108C102.043 0.513108 102.097 0.45542 102.097 0.384911C102.097 0.314403 102.152 0.256714 102.218 0.256714C102.398 0.256714 102.365 0.632716 102.166 0.842703C101.945 1.07717 101.763 1.07461 101.536 0.8336C101.436 0.727838 101.413 0.641305 101.484 0.641305C101.555 0.641305 101.613 0.497084 101.613 0.320813C101.613 0.0177553 101.577 0.0003205 100.948 0.0003205C100.498 0.0003205 100.282 0.0519839 100.281 0.160567C100.28 0.269149 100.238 0.258894 100.151 0.128517C100.054 -0.0162169 100.007 -0.0241651 99.9612 0.0964682C99.9275 0.184539 99.8263 0.256714 99.7366 0.256714C99.6468 0.256714 99.5388 0.372092 99.4966 0.513108C99.449 0.672072 99.3136 0.769502 99.1403 0.769502C98.798 0.769502 98.5589 0.490033 98.6607 0.208897C98.7112 0.0695468 98.6716 0.0003205 98.5418 0.0003205C98.4349 0.0003205 98.3474 0.0580091 98.3474 0.128517C98.3474 0.199026 98.2658 0.256714 98.166 0.256714C98.0662 0.256714 97.9845 0.314403 97.9845 0.384911C97.9845 0.45542 97.9029 0.513108 97.8031 0.513108C97.7033 0.513108 97.6216 0.45542 97.6216 0.384911C97.6216 0.314403 97.5174 0.256714 97.3898 0.256714C97.2623 0.256714 97.1262 0.184539 97.0873 0.0964682C97.031 -0.0317287 97.0027 -0.0317287 96.9463 0.0964682C96.8626 0.286584 96.412 0.313506 96.412 0.128517C96.412 0.0580091 96.3031 0.0003205 96.1701 0.0003205C96.037 0.0003205 95.9281 0.0580091 95.9281 0.128517C95.9281 0.199026 95.8193 0.256714 95.6862 0.256714C95.5532 0.256714 95.4443 0.199026 95.4443 0.128517C95.4443 0.0580091 95.3082 0.0003205 95.1419 0.0003205C94.9755 0.0003205 94.8386 0.0724954 94.8376 0.160567C94.8363 0.269149 94.7945 0.258894 94.7075 0.128517C94.6108 -0.0162169 94.5639 -0.0241651 94.5178 0.0964682C94.4841 0.184668 94.2704 0.256714 94.0432 0.256714C93.8159 0.256714 93.6298 0.314403 93.6298 0.384911C93.6298 0.45542 93.521 0.513108 93.3879 0.513108C93.2267 0.513108 93.146 0.427601 93.146 0.256714C93.146 0.115698 93.0915 0.0003205 93.025 0.0003205C92.9585 0.0003205 92.904 0.0580091 92.904 0.128517C92.904 0.199026 92.6319 0.256714 92.2992 0.256714C91.9666 0.256714 91.6944 0.314403 91.6944 0.384911C91.6944 0.45542 91.5855 0.513108 91.4525 0.513108C91.3194 0.513108 91.2105 0.45542 91.2105 0.384911C91.2105 0.314403 91.1017 0.256714 90.9686 0.256714C90.8355 0.256714 90.7267 0.314403 90.7267 0.384911C90.7267 0.45542 90.6722 0.513108 90.6057 0.513108C90.5392 0.513108 90.4847 0.397731 90.4847 0.256714C90.4847 -0.0855714 90.0503 -0.0855714 89.9658 0.256714C89.9174 0.453112 89.8008 0.513108 89.4679 0.513108C89.2288 0.513108 89.0332 0.45542 89.0332 0.384911C89.0332 0.314403 88.956 0.256714 88.8618 0.256714C88.7675 0.256714 88.6587 0.184668 88.6199 0.0964682C88.5635 -0.0317287 88.5352 -0.0317287 88.4788 0.0964682C88.44 0.184539 88.2539 0.256714 88.0655 0.256714C87.877 0.256714 87.691 0.184539 87.6521 0.0964682C87.5958 -0.0317287 87.5675 -0.0317287 87.5111 0.0964682C87.4275 0.286071 86.7349 0.314659 86.7349 0.128517C86.7349 -0.0564707 86.2843 -0.0295494 86.2006 0.160567C86.1442 0.288764 86.1159 0.288764 86.0595 0.160567C85.9499 -0.0883918 85.7672 -0.0282674 85.7672 0.256714C85.7672 0.427601 85.6865 0.513108 85.5252 0.513108C85.3922 0.513108 85.2833 0.45542 85.2833 0.384911C85.2833 0.314403 85.1164 0.256714 84.9123 0.256714C84.5962 0.256714 84.5526 0.294789 84.618 0.513108C84.7208 0.856548 84.4674 0.84642 84.1805 0.495802C83.9927 0.266457 83.9258 0.248894 83.768 0.387732C83.6252 0.513365 83.5455 0.517467 83.4396 0.405166C83.2501 0.20441 82.2957 0.213768 82.2183 0.416961C82.1696 0.545157 82.1554 0.545157 82.1478 0.416961C82.1426 0.328889 82.0021 0.256714 81.8358 0.256714C81.6141 0.256714 81.5334 0.325043 81.5334 0.513108C81.5334 0.683995 81.4527 0.769502 81.2915 0.769502C81.1571 0.769502 81.0496 0.683995 81.0496 0.577207C81.0496 0.471444 80.9951 0.384911 80.9286 0.384911C80.8621 0.384911 80.8076 0.471444 80.8076 0.577207C80.8076 0.682969 80.7765 0.769502 80.7386 0.769502C80.5965 0.769502 80.3238 0.396064 80.3238 0.201718C80.3238 -0.0386514 80.1311 -0.0658291 80.0314 0.160567C79.975 0.288764 79.9467 0.288764 79.8904 0.160567C79.7908 -0.0654445 79.6783 -0.0391641 79.477 0.256714ZM107.135 0.577207C107.296 0.748093 107.288 0.769502 107.065 0.769502C106.923 0.769502 106.815 0.686302 106.815 0.577207C106.815 0.471444 106.846 0.384911 106.884 0.384911C106.922 0.384911 107.035 0.471444 107.135 0.577207ZM69.6184 0.641305C69.6596 0.711813 69.6355 0.769502 69.5651 0.769502C69.4947 0.769502 69.437 0.711813 69.437 0.641305C69.437 0.570797 69.4609 0.513108 69.4903 0.513108C69.5197 0.513108 69.5773 0.570797 69.6184 0.641305ZM96.1701 0.641305C96.1701 0.711813 96.1156 0.769502 96.0491 0.769502C95.9826 0.769502 95.9281 0.711813 95.9281 0.641305C95.9281 0.570797 95.9826 0.513108 96.0491 0.513108C96.1156 0.513108 96.1701 0.570797 96.1701 0.641305ZM100.827 0.641305C100.868 0.711813 100.844 0.769502 100.774 0.769502C100.703 0.769502 100.646 0.711813 100.646 0.641305C100.646 0.570797 100.67 0.513108 100.699 0.513108C100.728 0.513108 100.786 0.570797 100.827 0.641305ZM106.029 0.641305C106.07 0.711813 106.046 0.769502 105.975 0.769502C105.905 0.769502 105.847 0.711813 105.847 0.641305C105.847 0.570797 105.871 0.513108 105.901 0.513108C105.93 0.513108 105.988 0.570797 106.029 0.641305ZM107.783 0.8336C107.783 0.948721 107.673 1.02423 107.51 1.02179C107.245 1.01782 107.244 1.01308 107.473 0.829498C107.765 0.595795 107.783 0.596052 107.783 0.8336ZM65.4452 0.897699C65.4452 0.968207 65.3907 1.0259 65.3242 1.0259C65.2577 1.0259 65.2032 0.968207 65.2032 0.897699C65.2032 0.827191 65.2577 0.769502 65.3242 0.769502C65.3907 0.769502 65.4452 0.827191 65.4452 0.897699ZM86.6606 0.965515C86.7623 1.07333 86.8148 1.24639 86.7773 1.35011C86.6866 1.60047 86.6528 1.5915 86.3094 1.22768C86.1119 1.01833 86.0642 0.895904 86.1637 0.853215C86.4089 0.747965 86.4679 0.761169 86.6606 0.965515ZM108.468 1.18614C108.434 1.27434 108.407 1.20217 108.407 1.0259C108.407 0.849625 108.434 0.777578 108.468 0.86565C108.501 0.953849 108.501 1.09807 108.468 1.18614ZM71.4934 1.08999C71.622 1.25421 71.5866 1.28229 71.2515 1.28229C70.9163 1.28229 70.8809 1.25421 71.0095 1.08999C71.0924 0.984232 71.2013 0.897699 71.2515 0.897699C71.3017 0.897699 71.4105 0.984232 71.4934 1.08999ZM91.6037 0.982565C91.5206 1.0182 91.3845 1.0182 91.3013 0.982565C91.2182 0.947055 91.2861 0.917954 91.4525 0.917954C91.6188 0.917954 91.6869 0.947055 91.6037 0.982565ZM43.4902 1.15409C43.5313 1.2246 43.48 1.28229 43.3764 1.28229C43.2727 1.28229 43.1878 1.2246 43.1878 1.15409C43.1878 1.08358 43.2389 1.0259 43.3016 1.0259C43.3643 1.0259 43.4491 1.08358 43.4902 1.15409ZM53.5135 1.34639C53.5612 1.47792 53.5064 1.53868 53.3402 1.53868C53.1366 1.53868 53.1226 1.5083 53.2533 1.35126C53.4477 1.11768 53.4308 1.11794 53.5135 1.34639ZM95.0259 1.29088C95.15 1.50369 95.0386 1.53317 94.865 1.33344C94.7791 1.23486 94.7623 1.15409 94.8276 1.15409C94.8928 1.15409 94.9821 1.21563 95.0259 1.29088ZM112.651 1.23896C112.568 1.2746 112.432 1.2746 112.349 1.23896C112.266 1.20345 112.334 1.17435 112.5 1.17435C112.667 1.17435 112.735 1.20345 112.651 1.23896ZM43.9136 1.41049C43.9136 1.481 43.8591 1.53868 43.7926 1.53868C43.7261 1.53868 43.6716 1.481 43.6716 1.41049C43.6716 1.33998 43.7261 1.28229 43.7926 1.28229C43.8591 1.28229 43.9136 1.33998 43.9136 1.41049ZM74.8804 1.53868C74.8804 1.70957 74.7997 1.79508 74.6385 1.79508C74.4772 1.79508 74.3965 1.70957 74.3965 1.53868C74.3965 1.3678 74.4772 1.28229 74.6385 1.28229C74.7997 1.28229 74.8804 1.3678 74.8804 1.53868ZM110.645 1.69893C110.611 1.78713 110.584 1.71495 110.584 1.53868C110.584 1.36241 110.611 1.29037 110.645 1.37844C110.679 1.46664 110.679 1.61086 110.645 1.69893ZM111.774 1.41049C111.774 1.481 111.72 1.53868 111.653 1.53868C111.587 1.53868 111.533 1.481 111.533 1.41049C111.533 1.33998 111.587 1.28229 111.653 1.28229C111.72 1.28229 111.774 1.33998 111.774 1.41049ZM50.3247 1.53868C50.3247 1.60919 50.4335 1.66688 50.5666 1.66688C50.7137 1.66688 50.8085 1.75239 50.8085 1.88482C50.8085 2.05429 50.7762 2.06852 50.6634 1.94891C50.5835 1.8643 50.4202 1.79508 50.3005 1.79508C50.1807 1.79508 50.0827 1.70854 50.0827 1.60278C50.0827 1.49702 50.1372 1.41049 50.2037 1.41049C50.2702 1.41049 50.3247 1.46818 50.3247 1.53868ZM55.5261 1.61137C55.5261 1.75405 55.5964 1.78867 55.768 1.73098C55.9397 1.67329 56.01 1.7079 56.01 1.85059C56.01 2.11839 55.4491 2.11634 55.1954 1.84751C55.032 1.67432 55.0287 1.62637 55.1739 1.52907C55.4241 1.36113 55.5261 1.38498 55.5261 1.61137ZM60.0018 1.54727C60.0018 1.62586 60.105 1.64945 60.2437 1.60278C60.3825 1.55612 60.4856 1.57971 60.4856 1.65829C60.4856 1.73354 60.3223 1.79508 60.1228 1.79508C59.8808 1.79508 59.7599 1.73098 59.7599 1.60278C59.7599 1.49702 59.8143 1.41049 59.8808 1.41049C59.9474 1.41049 60.0018 1.47202 60.0018 1.54727ZM62.3883 1.48792C62.3481 1.53048 62.2437 1.53509 62.1565 1.49805C62.06 1.45715 62.0887 1.42677 62.2296 1.42061C62.3571 1.4151 62.4285 1.44536 62.3883 1.48792ZM69.2605 1.54727C69.3846 1.76008 69.2732 1.78957 69.0996 1.58983C69.0137 1.49125 68.9969 1.41049 69.0622 1.41049C69.1274 1.41049 69.2167 1.47202 69.2605 1.54727ZM72.2192 1.46702C72.2192 1.49817 72.1647 1.5592 72.0982 1.60278C72.0317 1.64637 71.9772 1.62086 71.9772 1.54625C71.9772 1.47164 72.0317 1.41049 72.0982 1.41049C72.1647 1.41049 72.2192 1.43587 72.2192 1.46702ZM75.3642 1.60278C75.3642 1.70854 75.3098 1.79508 75.2433 1.79508C75.1767 1.79508 75.1223 1.70854 75.1223 1.60278C75.1223 1.49702 75.1767 1.41049 75.2433 1.41049C75.3098 1.41049 75.3642 1.49702 75.3642 1.60278ZM108.712 1.69098C108.673 1.79315 108.645 1.76277 108.639 1.61342C108.634 1.4783 108.662 1.40267 108.702 1.44523C108.743 1.48779 108.747 1.59842 108.712 1.69098ZM75.8481 1.66688C75.8481 1.73739 75.7937 1.79508 75.7271 1.79508C75.6606 1.79508 75.6062 1.73739 75.6062 1.66688C75.6062 1.59637 75.6606 1.53868 75.7271 1.53868C75.7937 1.53868 75.8481 1.59637 75.8481 1.66688ZM30.9321 1.94738C30.8935 2.04955 30.8648 2.01917 30.859 1.86982C30.8538 1.7347 30.8823 1.65906 30.9225 1.70162C30.9627 1.74418 30.967 1.85482 30.9321 1.94738ZM33.0625 1.88148C33.0027 2.0466 33.0334 2.07621 33.1963 2.00994C33.3196 1.95981 33.4831 2.00391 33.5888 2.11595C33.7495 2.28633 33.7283 2.30787 33.3983 2.30787C33.194 2.30787 33.0268 2.25018 33.0268 2.17967C33.0268 2.10916 32.8499 2.04365 32.6337 2.03404C32.3494 2.02135 32.3159 2.00122 32.5127 1.96096C32.6624 1.93045 32.7849 1.85174 32.7849 1.7861C32.7849 1.7206 32.8648 1.66688 32.9626 1.66688C33.0789 1.66688 33.1134 1.74085 33.0625 1.88148ZM38.7627 1.7447C39.033 1.85456 39.0005 2.05147 38.7121 2.05147C38.5777 2.05147 38.4702 1.96596 38.4702 1.85918C38.4702 1.64342 38.4923 1.6347 38.7627 1.7447ZM39.6798 1.85918C39.6798 1.96494 39.6487 2.05147 39.6107 2.05147C39.5726 2.05147 39.4599 1.96494 39.3601 1.85918C39.1989 1.68829 39.2065 1.66688 39.4293 1.66688C39.5713 1.66688 39.6798 1.75008 39.6798 1.85918ZM110.169 1.74431C110.129 1.78687 110.025 1.79149 109.937 1.75444C109.841 1.71354 109.869 1.68316 110.01 1.67701C110.138 1.6715 110.209 1.70175 110.169 1.74431ZM26.9786 1.92327C26.9786 1.99378 26.8834 2.05057 26.7669 2.04955C26.5859 2.04788 26.5816 2.02942 26.7367 1.92327C26.9649 1.76687 26.9786 1.76687 26.9786 1.92327ZM34.2364 2.11557C34.2364 2.22133 34.182 2.30787 34.1155 2.30787C34.0489 2.30787 33.9945 2.22133 33.9945 2.11557C33.9945 2.00981 34.0489 1.92327 34.1155 1.92327C34.182 1.92327 34.2364 2.00981 34.2364 2.11557ZM42.8249 2.39683C42.8249 2.55618 42.799 2.55516 42.6434 2.3903C42.5436 2.28453 42.462 2.12916 42.462 2.04493C42.462 1.92917 42.5063 1.93084 42.6434 2.05147C42.7432 2.13929 42.8249 2.29466 42.8249 2.39683ZM81.6846 2.00814C81.6015 2.04378 81.4654 2.04378 81.3822 2.00814C81.2991 1.97263 81.3671 1.94353 81.5334 1.94353C81.6997 1.94353 81.7678 1.97263 81.6846 2.00814ZM95.6862 2.11557C95.6862 2.22133 95.6318 2.30787 95.5653 2.30787C95.4987 2.30787 95.4443 2.22133 95.4443 2.11557C95.4443 2.00981 95.4987 1.92327 95.5653 1.92327C95.6318 1.92327 95.6862 2.00981 95.6862 2.11557ZM99.799 2.16185C99.799 2.34735 99.7315 2.38683 99.4966 2.33927C99.0254 2.24377 99.1373 2.03173 99.7083 1.93815C99.7582 1.92994 99.799 2.0307 99.799 2.16185ZM100.486 2.20377C100.448 2.30594 100.419 2.27556 100.413 2.12621C100.408 1.99109 100.437 1.91545 100.477 1.95802C100.517 2.00058 100.521 2.11121 100.486 2.20377ZM106.573 2.11557C106.573 2.22133 106.519 2.30787 106.452 2.30787C106.385 2.30787 106.331 2.22133 106.331 2.11557C106.331 2.00981 106.385 1.92327 106.452 1.92327C106.519 1.92327 106.573 2.00981 106.573 2.11557ZM43.8531 2.17967C43.8942 2.25018 43.8701 2.30787 43.7997 2.30787C43.7293 2.30787 43.6716 2.25018 43.6716 2.17967C43.6716 2.10916 43.6956 2.05147 43.725 2.05147C43.7544 2.05147 43.8119 2.10916 43.8531 2.17967ZM60.0018 2.17967C60.0018 2.25018 59.9474 2.30787 59.8808 2.30787C59.8143 2.30787 59.7599 2.25018 59.7599 2.17967C59.7599 2.10916 59.8143 2.05147 59.8808 2.05147C59.9474 2.05147 60.0018 2.10916 60.0018 2.17967ZM28.9442 2.26453C28.8611 2.30017 28.7251 2.30017 28.6418 2.26453C28.5587 2.22902 28.6267 2.19992 28.793 2.19992C28.9594 2.19992 29.0275 2.22902 28.9442 2.26453ZM35.1134 2.26453C35.0303 2.30017 34.8942 2.30017 34.811 2.26453C34.7279 2.22902 34.7959 2.19992 34.9622 2.19992C35.1285 2.19992 35.1966 2.22902 35.1134 2.26453ZM55.0423 2.37196C55.0423 2.47773 54.9878 2.56426 54.9213 2.56426C54.8548 2.56426 54.8003 2.47773 54.8003 2.37196C54.8003 2.2662 54.8548 2.17967 54.9213 2.17967C54.9878 2.17967 55.0423 2.2662 55.0423 2.37196ZM114.194 2.37196C114.194 2.47773 114.139 2.56426 114.073 2.56426C114.006 2.56426 113.952 2.47773 113.952 2.37196C113.952 2.2662 114.006 2.17967 114.073 2.17967C114.139 2.17967 114.194 2.2662 114.194 2.37196ZM116.734 2.43606C116.734 2.57708 116.68 2.69246 116.613 2.69246C116.546 2.69246 116.492 2.57708 116.492 2.43606C116.492 2.29505 116.546 2.17967 116.613 2.17967C116.68 2.17967 116.734 2.29505 116.734 2.43606ZM80.5657 2.43606C80.5657 2.50657 80.4432 2.56336 80.2935 2.56234C80.0735 2.56067 80.0561 2.53657 80.2028 2.43606C80.4374 2.27543 80.5657 2.27543 80.5657 2.43606ZM81.2915 2.56426C81.2915 2.70528 81.237 2.82065 81.1705 2.82065C81.104 2.82065 81.0496 2.70528 81.0496 2.56426C81.0496 2.42324 81.104 2.30787 81.1705 2.30787C81.237 2.30787 81.2915 2.42324 81.2915 2.56426ZM112.934 2.78796C112.804 2.92577 112.735 2.73271 112.826 2.48644C112.912 2.25543 112.919 2.25505 112.961 2.47811C112.985 2.60708 112.973 2.74643 112.934 2.78796ZM8.47107 2.62836C8.47107 2.73412 8.41663 2.82065 8.3501 2.82065C8.28357 2.82065 8.22914 2.73412 8.22914 2.62836C8.22914 2.5226 8.28357 2.43606 8.3501 2.43606C8.41663 2.43606 8.47107 2.5226 8.47107 2.62836ZM27.281 2.5299C27.1479 2.56516 26.999 2.65938 26.9502 2.73938C26.8938 2.83168 26.8606 2.80283 26.8594 2.66041C26.8581 2.49708 26.9481 2.44016 27.1903 2.45093C27.4453 2.46234 27.4664 2.4808 27.281 2.5299ZM40.6147 2.51349C40.5746 2.55605 40.4702 2.56067 40.383 2.52362C40.2864 2.48273 40.3151 2.45234 40.456 2.44619C40.5835 2.44068 40.6549 2.47093 40.6147 2.51349ZM58.7921 2.70002C58.7921 2.76643 58.7377 2.82065 58.6712 2.82065C58.6047 2.82065 58.5502 2.73066 58.5502 2.62079C58.5502 2.51093 58.6047 2.45657 58.6712 2.50016C58.7377 2.54375 58.7921 2.63361 58.7921 2.70002ZM62.8722 2.51349C62.832 2.55605 62.7276 2.56067 62.6404 2.52362C62.5438 2.48273 62.5725 2.45234 62.7134 2.44619C62.8409 2.44068 62.9123 2.47093 62.8722 2.51349ZM77.2997 2.71386C77.2997 2.86655 77.2843 2.96757 77.2654 2.93821C77.2466 2.90885 77.1583 2.78373 77.0692 2.66041C76.9305 2.46837 76.9354 2.43606 77.1035 2.43606C77.2241 2.43606 77.2997 2.54311 77.2997 2.71386ZM78.5093 2.48644C78.5093 2.51413 78.4277 2.57003 78.3279 2.61067C78.2281 2.65118 78.1464 2.62849 78.1464 2.56028C78.1464 2.49196 78.2281 2.43606 78.3279 2.43606C78.4277 2.43606 78.5093 2.45875 78.5093 2.48644ZM42.6711 2.76989C42.631 2.81245 42.5266 2.81706 42.4394 2.78001C42.3428 2.73912 42.3715 2.70874 42.5124 2.70258C42.6399 2.69707 42.7113 2.72733 42.6711 2.76989ZM46.0526 2.97295C46.014 3.07512 45.9853 3.04474 45.9795 2.89539C45.9743 2.76027 46.0029 2.68464 46.043 2.7272C46.0832 2.76976 46.0875 2.88039 46.0526 2.97295ZM112.5 2.82065C112.5 2.89116 112.446 2.94885 112.379 2.94885C112.313 2.94885 112.258 2.89116 112.258 2.82065C112.258 2.75014 112.313 2.69246 112.379 2.69246C112.446 2.69246 112.5 2.75014 112.5 2.82065ZM37.231 3.1091C37.2037 3.1973 37.0222 3.28575 36.8278 3.30588L36.4743 3.34254L36.7767 3.1582C37.1638 2.92231 37.2932 2.90834 37.231 3.1091ZM21.2549 3.48574C21.2163 3.58791 21.1877 3.55753 21.1819 3.40818C21.1767 3.27306 21.2052 3.19742 21.2454 3.23998C21.2855 3.28255 21.2899 3.39318 21.2549 3.48574ZM23.8335 3.39754C23.8335 3.5033 23.7791 3.58983 23.7125 3.58983C23.646 3.58983 23.5916 3.5033 23.5916 3.39754C23.5916 3.29178 23.646 3.20524 23.7125 3.20524C23.7791 3.20524 23.8335 3.29178 23.8335 3.39754ZM24.3951 3.39754C24.5564 3.56843 24.5488 3.58983 24.326 3.58983C24.1839 3.58983 24.0754 3.50663 24.0754 3.39754C24.0754 3.29178 24.1065 3.20524 24.1445 3.20524C24.1826 3.20524 24.2954 3.29178 24.3951 3.39754ZM40.4056 3.4051C40.4056 3.51497 40.3512 3.56932 40.2846 3.52574C40.2181 3.48215 40.1637 3.39228 40.1637 3.32588C40.1637 3.25947 40.2181 3.20524 40.2846 3.20524C40.3512 3.20524 40.4056 3.29524 40.4056 3.4051ZM42.0607 3.48574C42.0222 3.58791 41.9935 3.55753 41.9877 3.40818C41.9825 3.27306 42.011 3.19742 42.0512 3.23998C42.0914 3.28255 42.0957 3.39318 42.0607 3.48574ZM46.7839 3.28267C46.7438 3.32524 46.6394 3.32985 46.5521 3.2928C46.4556 3.25191 46.4843 3.22152 46.6252 3.21537C46.7527 3.20986 46.8241 3.24011 46.7839 3.28267ZM31.6578 3.74213C31.6192 3.84431 31.5906 3.81392 31.5848 3.66457C31.5796 3.52945 31.6081 3.45382 31.6483 3.49638C31.6884 3.53894 31.6928 3.64957 31.6578 3.74213ZM34.6296 3.5465C34.5465 3.58214 34.4104 3.58214 34.3272 3.5465C34.244 3.51099 34.312 3.48189 34.4784 3.48189C34.6447 3.48189 34.7128 3.51099 34.6296 3.5465ZM39.831 3.5465C39.7479 3.58214 39.6118 3.58214 39.5286 3.5465C39.4455 3.51099 39.5135 3.48189 39.6798 3.48189C39.8461 3.48189 39.9142 3.51099 39.831 3.5465ZM40.9499 3.58983C40.9088 3.66034 40.824 3.71803 40.7614 3.71803C40.6987 3.71803 40.6475 3.66034 40.6475 3.58983C40.6475 3.51933 40.7324 3.46164 40.8361 3.46164C40.9398 3.46164 40.9911 3.51933 40.9499 3.58983ZM33.2687 3.84623C33.2687 3.91674 33.2143 3.97443 33.1478 3.97443C33.0812 3.97443 33.0268 3.91674 33.0268 3.84623C33.0268 3.77572 33.0812 3.71803 33.1478 3.71803C33.2143 3.71803 33.2687 3.77572 33.2687 3.84623ZM33.7526 3.84623C33.7526 3.91674 33.6981 3.97443 33.6316 3.97443C33.5651 3.97443 33.5106 3.91674 33.5106 3.84623C33.5106 3.77572 33.5651 3.71803 33.6316 3.71803C33.6981 3.71803 33.7526 3.77572 33.7526 3.84623ZM9.19685 4.35902C9.19685 4.42952 9.1729 4.48721 9.14351 4.48721C9.11411 4.48721 9.05653 4.42952 9.01541 4.35902C8.97428 4.28851 8.99835 4.23082 9.06875 4.23082C9.13915 4.23082 9.19685 4.28851 9.19685 4.35902ZM0.36647 4.56041C0.36647 4.6008 0.448121 4.72027 0.547916 4.82604C0.744846 5.03474 0.769523 5.00372 0.655937 4.69002C0.586988 4.49939 0.36647 4.40081 0.36647 4.56041Z" fill="#D72027"/>
</svg>
